<svg width="34" height="34" viewBox="0 0 34 34" fill="none" xmlns="http://www.w3.org/2000/svg">
<path fill-rule="evenodd" clip-rule="evenodd" d="M9.22392 1.875C5.16522 1.875 1.875 5.16522 1.875 9.22392V24.9217C1.875 28.9804 5.16522 32.2707 9.22392 32.2707H24.9217C28.9804 32.2707 32.2707 28.9804 32.2707 24.9217V9.22392C32.2707 5.16522 28.9804 1.875 24.9217 1.875H9.22392ZM0.875 9.22392C0.875 4.61294 4.61294 0.875 9.22392 0.875H24.9217C29.5327 0.875 33.2707 4.61294 33.2707 9.22392V24.9217C33.2707 29.5327 29.5327 33.2707 24.9217 33.2707H9.22392C4.61294 33.2707 0.875 29.5327 0.875 24.9217V9.22392ZM17.9887 11.288C16.7863 11.1097 15.5582 11.3151 14.4793 11.8749C13.4003 12.4348 12.5254 13.3206 11.9789 14.4064C11.4324 15.4922 11.2421 16.7226 11.4352 17.9227C11.6284 19.1229 12.195 20.2315 13.0545 21.0911C13.9141 21.9506 15.0227 22.5172 16.2229 22.7104C17.423 22.9035 18.6534 22.7132 19.7392 22.1667C20.825 21.6202 21.7108 20.7453 22.2707 19.6663C22.8305 18.5874 23.0359 17.3593 22.8576 16.1569C22.6757 14.9304 22.1042 13.7949 21.2274 12.9182C20.3507 12.0414 19.2152 11.4699 17.9887 11.288ZM14.0187 10.9873C15.2844 10.3306 16.7249 10.0897 18.1354 10.2988C19.5741 10.5122 20.9061 11.1826 21.9346 12.211C22.963 13.2395 23.6334 14.5715 23.8468 16.0102C24.0559 17.4207 23.815 18.8612 23.1583 20.1269C22.5016 21.3925 21.4625 22.4189 20.1888 23.06C18.9151 23.701 17.4718 23.9242 16.064 23.6977C14.6562 23.4711 13.3557 22.8064 12.3474 21.7982C11.3391 20.7899 10.6745 19.4894 10.4479 18.0816C10.2214 16.6738 10.4446 15.2305 11.0856 13.9568C11.7267 12.6831 12.7531 11.644 14.0187 10.9873ZM25.7066 7.93904C25.4305 7.93904 25.2066 8.1629 25.2066 8.43904C25.2066 8.71518 25.4305 8.93904 25.7066 8.93904H25.7246C26.0008 8.93904 26.2246 8.71518 26.2246 8.43904C26.2246 8.1629 26.0008 7.93904 25.7246 7.93904H25.7066Z" fill="black"/>
</svg>
