<svg width="194" height="341" viewBox="0 0 194 341" fill="none" xmlns="http://www.w3.org/2000/svg">
<g clip-path="url(#clip0_9_296)">
<path d="M190.771 35.3947C190.771 16.5352 174.849 1.21338 155.167 1.21338H154.904H154.64H154.375H154.11H153.844H153.577H153.309H153.041H152.772H152.502H152.232H151.961H151.689H151.417H151.144H150.87H150.596H150.32H150.045H149.768H149.491H149.213H148.935H148.656H148.376H148.096H147.815H147.533H147.251H146.968H146.685H146.401H146.116H145.83H145.544H145.258H144.971H144.683H144.394H144.105H143.815H143.525H143.234H142.943H142.651H142.358H142.065H141.771H141.477H141.182H140.886H140.59H140.293H139.996H139.698H139.4H139.101H138.801H138.501H138.2H137.899H137.598H137.295H136.992H136.689H136.385H136.081H135.776H135.47H135.164H134.858H134.551H134.243H133.935H133.627H133.318H133.008H132.698H132.388H132.077H131.765H131.453H131.14H130.827H130.514H130.2H129.886H129.571H129.255H128.939H128.623H128.306H127.989H127.671H127.353H127.035H126.716H126.396H126.076H125.756H125.435H125.114H124.792H124.47H124.148H123.825H123.501H123.178H122.853H122.529H122.204H121.878H121.553H121.226H120.9H120.573H120.245H119.917H119.589H119.261H118.932H118.603H118.273H117.943H117.612H117.282H116.95H116.619H116.287H115.955H115.622H115.289H114.956H114.622H114.288H113.954H113.619H113.285H112.949H112.614H112.278H111.941H111.605H111.268H110.931H110.593H110.255H109.917H109.579H109.24H108.901H108.562H108.222H107.882H107.542H107.201H106.861H106.52H106.178H105.837H105.495H105.153H104.81H104.468H104.125H103.782H103.438H103.095H102.751H102.407H102.062H101.718H101.373H101.028H100.682H100.337H99.991H99.645H99.2988H98.9524H98.6058H98.2589H97.9119H97.5647H97.2172H96.8696H96.5217H96.1737H95.8254H95.477H95.1284H94.7796H94.4307H94.0815H93.7322H93.3828H93.0331H92.6833H92.3333H91.9832H91.6329H91.2824H90.9319H90.5811H90.2302H89.8792H89.528H89.1767H88.8253H88.4737H88.122H87.7702H87.4182H87.0661H86.7139H86.3616H86.0092H85.6567H85.3041H84.9513H84.5985H84.2456H83.8925H83.5394H83.1862H82.8329H82.4795H82.1261H81.7725H81.4189H81.0652H80.7115H80.3577H80.0038H79.6498H79.2958H78.9417H78.5876H78.2335H77.8792H77.525H77.1707H76.8163H76.462H76.1075H75.7531H75.3986H75.0441H74.6896H74.3351H73.9805H73.626H73.2714H72.9168H72.5622H72.2076H71.853H71.4984H71.1438H70.7893H70.4347H70.0801H69.7256H69.3711H69.0166H68.6621H68.3077H67.9533H67.5989H67.2446H66.8903H66.536H66.1818H65.8276H65.4735H65.1194H64.7654H64.4115H64.0576H63.7038H63.35H62.9963H62.6427H62.2892H61.9357H61.5823H61.229H60.8758H60.5227H60.1697H59.8168H59.4639H59.1112H58.7586H58.406H58.0536H57.7013H57.3491H56.9971H56.6451H56.2933H55.9416H55.59H55.2386H54.8873H54.5361H54.1851H53.8342H53.4834H53.1329H52.7824H52.4321H52.082H51.732H51.3822H51.0326H50.6831H50.3338H49.9846H49.6357H49.2869H48.9383H48.5899H48.2417H47.8936H47.5458H47.1982H46.8507H46.5035H46.1564H45.8096H45.463H45.1165H44.7703H44.4244H44.0786H43.7331H43.3878H43.0427H42.6978H42.3532H42.0089H41.6647H41.3208H40.9772H40.6338H40.2906H39.9478H39.6051H39.2627H38.9206H38.5788H38.2372H37.8959H37.5549H37.2141H36.8737H36.5335H36.1936H35.8539H35.5146H35.1756H34.8368H34.4984H34.1603H33.8224H33.4849H33.1477H32.8108H32.4742H32.1379H31.802H31.4664H31.1311H30.7961H30.4615H30.1272H29.7932H29.4596H29.1264H28.7934H28.4609H28.1286H27.7968H27.4653H27.1341H26.8033H26.4729H26.1428H25.8132H25.4839H25.1549H24.8264H24.4982H24.1704H23.8431H23.5161H23.1895H22.8633H22.5374H22.212H21.887H21.5625H21.2383H20.9145H20.5912H20.2682H19.9457H19.6236H19.302H18.9808H18.66H18.3396H18.0197H17.7002H17.3812H17.0626H16.7445H16.4268H16.1096H15.7928H15.4765H15.1607H14.8453H14.5304H14.216H13.902H13.5886H13.2756H12.963H12.651H12.3395H12.0284H11.7179H11.4078H11.0983H10.7892H10.4807H10.1727H9.86514H9.55814H9.25165H8.94568H8.64023H8.33531H8.03092H7.72705H7.42373H7.12094H6.81869H6.51698H6.21582H5.9152H5.61514H5.31563H5.01667H4.71828H4.42044H4.12318H3.82647H3.53034H3.23479H2.9398H2.6454H2.35158H2.05835H1.76569H1.47363H1.18217H0.891296H0.601025H0.311352H0.0222816H-0.266178H-0.554031H-0.84127H-1.1279H-1.4139H-1.69929H-1.98405H-2.26818H-2.55169H-2.83457H-3.11681H-3.39841H-3.67937H-3.95969H-4.23937H-4.51839H-4.79677H-5.07449H-5.35155H-5.62795H-5.90369H-6.17877H-6.45317H-6.72691H-6.99997H-7.27236H-7.54406H-7.81509H-8.08543H-8.35508H-8.62404H-8.8923H-9.15987H-9.42675H-9.69292H-9.95838H-10.2231H-10.4872H-10.7505C-30.4334 1.21338 -46.3547 16.5352 -46.3547 35.3947V35.9076V36.4237V36.943V37.4655V37.9911V38.5199V39.0518V39.5869V40.1251V40.6664V41.2108V41.7582V42.3088V42.8624V43.419V43.9786V44.5413V45.107V45.6757V46.2473V46.822V47.3996V47.9801V48.5635V49.1499V49.7392V50.3313V50.9264V51.5243V52.1251V52.7287V53.3351V53.9444V54.5564V55.1713V55.7889V56.4093V57.0325V57.6583V58.287V58.9183V59.5523V60.1891V60.8285V61.4705V62.1153V62.7626V63.4126V64.0652V64.7204V65.3782V66.0386V66.7016V67.3671V68.0351V68.7057V69.3787V70.0543V70.7324V71.4129V72.096V72.7814V73.4693V74.1597V74.8524V75.5476V76.2451V76.945V77.6473V78.3519V79.0589V79.7682V80.4798V81.1937V81.9099V82.6283V83.3491V84.0721V84.7973V85.5247V86.2544V86.9863V87.7203V88.4565V89.1949V89.9355V90.6781V91.4229V92.1698V92.9189V93.67V94.4231V95.1784V95.9357V96.695V97.4563V98.2197V98.9851V99.7524V100.522V101.293V102.066V102.841V103.618V104.397V105.178V105.961V106.746V107.532V108.321V109.111V109.903V110.697V111.492V112.29V113.089V113.89V114.693V115.497V116.303V117.111V117.921V118.732V119.545V120.36V121.176V121.994V122.813V123.634V124.457V125.281V126.107V126.934V127.763V128.594V129.426V130.259V131.094V131.931V132.769V133.608V134.449V135.292V136.135V136.98V137.827V138.675V139.524V140.375V141.227V142.08V142.935V143.791V144.648V145.507V146.366V147.227V148.09V148.953V149.818V150.684V151.551V152.419V153.289V154.16V155.031V155.904V156.778V157.654V158.53V159.407V160.286V161.165V162.046V162.927V163.81V164.693V165.578V166.463V167.35V168.237V169.126V170.015V170.905V171.796V172.689V173.581V174.475V175.37V176.265V177.162V178.059V178.957V179.856V180.755V181.655V182.556V183.458V184.361V185.264V186.168V187.073V187.978V188.884V189.79V190.698V191.606V192.514V193.423V194.333V195.243V196.154V197.065V197.977V198.89V199.803V200.716V201.63V202.545V203.46V204.375V205.291V206.207V207.124V208.041V208.958V209.876V210.794V211.713V212.632V213.551V214.471V215.39V216.311V217.231V218.152V219.072V219.994V220.915V221.837V222.758V223.68V224.603V225.525V226.447V227.37V228.293V229.215V230.138V231.061V231.985V232.908V233.831V234.754V235.678V236.601V237.524V238.447V239.371V240.294V241.217V242.14V243.063V243.986V244.909V245.832V246.754V247.677V248.599V249.521V250.443V251.365V252.287V253.208V254.129V255.05V255.971V256.891V257.811V258.731V259.651V260.57V261.489V262.407V263.326V264.243V265.161V266.078V266.995V267.911V268.827V269.742V270.657V271.571V272.485V273.399V274.312V275.224V276.136V277.048V277.958V278.869V279.778V280.688V281.596V282.504V283.411V284.318V285.224V286.129V287.034V287.938V288.841V289.743V290.645V291.546V292.447V293.346V294.245V295.143V296.04V296.936V297.832V298.726V299.62V300.513V301.405V302.296V303.187V304.076V304.964V305.852V306.738V307.624V308.508V309.392V310.275V311.156V312.037V312.916V313.795V314.672V315.548V316.423V317.297V318.17V319.042V319.913V320.782V321.651V322.518V323.384V324.248V325.112V325.974V326.835V327.695V328.554V329.411V330.267V331.122V331.975V332.827V333.678V334.527V335.375V336.221V337.066V337.91V338.752V339.593V340.433V341.271V342.107V342.942V343.776V344.608V345.438V346.267V347.095V347.921V348.745V349.567V350.389V351.208V352.026V352.842V353.657V354.47V355.281V356.091V356.898V357.705V358.509V359.312V360.113V360.912V361.709V362.505V363.299V364.091V364.881V365.669V366.456V367.241V368.023V368.804V369.583V370.36V371.135V371.909V372.68V373.449V374.217V374.982V375.745V376.507V377.266V378.023V378.779V379.532V380.283V381.032V381.779V382.524V383.266V384.007V384.745V385.481V386.215V386.947V387.677V388.404V389.13V389.853V390.573V391.292V392.008V392.722V393.434V394.143V394.85V395.554V396.257V396.957V397.654V398.349V399.042V399.732V400.42V401.106V401.789V402.469V403.147V403.823V404.496V405.167V405.835V406.5V407.163V407.823V408.481V409.136V409.789V410.439V411.086V411.731V412.373V413.013V413.649V414.283V414.915V415.543V416.169V416.792V417.413V418.03V418.645V419.257V419.867V420.473V421.077V421.677V422.275V422.87V423.463V424.052V424.638V425.222V425.802V426.38V426.954V427.526V428.095V428.66V429.223V429.783V430.339V430.893V431.443V431.991V432.535V433.077V433.615V434.15V434.682V435.211V435.736V436.259V436.778V437.294V437.807C-46.3547 456.667 -30.4334 471.988 -10.7505 471.988H-10.4872H-10.2231H-9.95838H-9.69292H-9.42675H-9.15987H-8.8923H-8.62404H-8.35508H-8.08543H-7.81509H-7.54406H-7.27236H-6.99997H-6.72691H-6.45317H-6.17877H-5.90369H-5.62795H-5.35155H-5.07449H-4.79677H-4.51839H-4.23937H-3.95969H-3.67937H-3.39841H-3.11681H-2.83457H-2.55169H-2.26818H-1.98405H-1.69929H-1.4139H-1.1279H-0.84127H-0.554031H-0.266178H0.0222816H0.311352H0.601025H0.891296H1.18217H1.47363H1.76569H2.05835H2.35158H2.6454H2.9398H3.23479H3.53034H3.82647H4.12318H4.42044H4.71828H5.01667H5.31563H5.61514H5.9152H6.21582H6.51698H6.81869H7.12094H7.42373H7.72705H8.03092H8.33531H8.64023H8.94568H9.25165H9.55814H9.86514H10.1727H10.4807H10.7892H11.0983H11.4078H11.7179H12.0284H12.3395H12.651H12.963H13.2756H13.5886H13.902H14.216H14.5304H14.8453H15.1607H15.4765H15.7928H16.1096H16.4268H16.7445H17.0626H17.3812H17.7002H18.0197H18.3396H18.66H18.9808H19.302H19.6236H19.9457H20.2682H20.5912H20.9145H21.2383H21.5625H21.887H22.212H22.5374H22.8633H23.1895H23.5161H23.8431H24.1704H24.4982H24.8264H25.1549H25.4839H25.8132H26.1428H26.4729H26.8033H27.1341H27.4653H27.7968H28.1286H28.4609H28.7934H29.1264H29.4596H29.7932H30.1272H30.4615H30.7961H31.1311H31.4664H31.802H32.1379H32.4742H32.8108H33.1477H33.4849H33.8224H34.1603H34.4984H34.8368H35.1756H35.5146H35.8539H36.1936H36.5335H36.8737H37.2141H37.5549H37.8959H38.2372H38.5788H38.9206H39.2627H39.6051H39.9478H40.2906H40.6338H40.9772H41.3208H41.6647H42.0089H42.3532H42.6978H43.0427H43.3878H43.7331H44.0786H44.4244H44.7703H45.1165H45.463H45.8096H46.1564H46.5035H46.8507H47.1982H47.5458H47.8936H48.2417H48.5899H48.9383H49.2869H49.6357H49.9846H50.3338H50.6831H51.0326H51.3822H51.732H52.082H52.4321H52.7824H53.1329H53.4834H53.8342H54.1851H54.5361H54.8873H55.2386H55.59H55.9416H56.2933H56.6451H56.9971H57.3491H57.7013H58.0536H58.406H58.7586H59.1112H59.4639H59.8168H60.1697H60.5227H60.8758H61.229H61.5823H61.9357H62.2892H62.6427H62.9963H63.35H63.7038H64.0576H64.4115H64.7654H65.1194H65.4735H65.8276H66.1818H66.536H66.8903H67.2446H67.5989H67.9533H68.3077H68.6621H69.0166H69.3711H69.7256H70.0801H70.4347H70.7893H71.1438H71.4984H71.853H72.2076H72.5622H72.9168H73.2714H73.626H73.9805H74.3351H74.6896H75.0441H75.3986H75.7531H76.1075H76.462H76.8163H77.1707H77.525H77.8792H78.2335H78.5876H78.9417H79.2958H79.6498H80.0038H80.3577H80.7115H81.0652H81.4189H81.7725H82.1261H82.4795H82.8329H83.1862H83.5394H83.8925H84.2456H84.5985H84.9513H85.3041H85.6567H86.0092H86.3616H86.7139H87.0661H87.4182H87.7702H88.122H88.4737H88.8253H89.1767H89.528H89.8792H90.2302H90.5811H90.9319H91.2824H91.6329H91.9832H92.3333H92.6833H93.0331H93.3828H93.7322H94.0815H94.4307H94.7796H95.1284H95.477H95.8254H96.1737H96.5217H96.8696H97.2172H97.5647H97.9119H98.2589H98.6058H98.9524H99.2988H99.645H99.991H100.337H100.682H101.028H101.373H101.718H102.062H102.407H102.751H103.095H103.438H103.782H104.125H104.468H104.81H105.153H105.495H105.837H106.178H106.52H106.861H107.201H107.542H107.882H108.222H108.562H108.901H109.24H109.579H109.917H110.255H110.593H110.931H111.268H111.605H111.941H112.278H112.614H112.949H113.285H113.619H113.954H114.288H114.622H114.956H115.289H115.622H115.955H116.287H116.619H116.95H117.282H117.612H117.943H118.273H118.603H118.932H119.261H119.589H119.917H120.245H120.573H120.9H121.226H121.553H121.878H122.204H122.529H122.853H123.178H123.501H123.825H124.148H124.47H124.792H125.114H125.435H125.756H126.076H126.396H126.716H127.035H127.353H127.671H127.989H128.306H128.623H128.939H129.255H129.571H129.886H130.2H130.514H130.827H131.14H131.453H131.765H132.077H132.388H132.698H133.008H133.318H133.627H133.935H134.243H134.551H134.858H135.164H135.47H135.776H136.081H136.385H136.689H136.992H137.295H137.598H137.899H138.2H138.501H138.801H139.101H139.4H139.698H139.996H140.293H140.59H140.886H141.182H141.477H141.771H142.065H142.358H142.651H142.943H143.234H143.525H143.815H144.105H144.394H144.683H144.971H145.258H145.544H145.83H146.116H146.401H146.685H146.968H147.251H147.533H147.815H148.096H148.376H148.656H148.935H149.213H149.491H149.768H150.045H150.32H150.596H150.87H151.144H151.417H151.689H151.961H152.232H152.502H152.772H153.041H153.309H153.577H153.844H154.11H154.375H154.64H154.904H155.167C174.849 471.988 190.771 456.667 190.771 437.807V35.3947ZM190.771 35.3947V35.9076M190.771 35.3947V35.9076M190.771 35.9076V36.4237M190.771 35.9076V36.4237M190.771 36.4237V36.943M190.771 36.4237V36.943M190.771 36.943V37.4655M190.771 36.943V37.4655M190.771 37.4655V37.9911M190.771 37.4655V37.9911M190.771 37.9911V38.5199M190.771 37.9911V38.5199M190.771 38.5199V39.0518M190.771 38.5199V39.0518M190.771 39.0518V39.5869M190.771 39.0518V39.5869M190.771 39.5869V40.1251M190.771 39.5869V40.1251M190.771 40.1251V40.6664M190.771 40.1251V40.6664M190.771 40.6664V41.2108M190.771 40.6664V41.2108M190.771 41.2108V41.7582M190.771 41.2108V41.7582M190.771 41.7582V42.3088M190.771 41.7582V42.3088M190.771 42.3088V42.8624M190.771 42.3088V42.8624M190.771 42.8624V43.419M190.771 42.8624V43.419M190.771 43.419V43.9786M190.771 43.419V43.9786M190.771 43.9786V44.5413M190.771 43.9786V44.5413M190.771 44.5413V45.107M190.771 44.5413V45.107M190.771 45.107V45.6757M190.771 45.107V45.6757M190.771 45.6757V46.2473M190.771 45.6757V46.2473M190.771 46.2473V46.822M190.771 46.2473V46.822M190.771 46.822V47.3996M190.771 46.822V47.3996M190.771 47.3996V47.9801M190.771 47.3996V47.9801M190.771 47.9801V48.5635M190.771 47.9801V48.5635M190.771 48.5635V49.1499M190.771 48.5635V49.1499M190.771 49.1499V49.7392M190.771 49.1499V49.7392M190.771 49.7392V50.3313M190.771 49.7392V50.3313M190.771 50.3313V50.9264M190.771 50.3313V50.9264M190.771 50.9264V51.5243M190.771 50.9264V51.5243M190.771 51.5243V52.1251M190.771 51.5243V52.1251M190.771 52.1251V52.7287M190.771 52.1251V52.7287M190.771 52.7287V53.3351M190.771 52.7287V53.3351M190.771 53.3351V53.9444M190.771 53.3351V53.9444M190.771 53.9444V54.5564M190.771 53.9444V54.5564M190.771 54.5564V55.1713M190.771 54.5564V55.1713M190.771 55.1713V55.7889M190.771 55.1713V55.7889M190.771 55.7889V56.4093M190.771 55.7889V56.4093M190.771 56.4093V57.0325M190.771 56.4093V57.0325M190.771 57.0325V57.6583M190.771 57.0325V57.6583M190.771 57.6583V58.287M190.771 57.6583V58.287M190.771 58.287V58.9183M190.771 58.287V58.9183M190.771 58.9183V59.5523M190.771 58.9183V59.5523M190.771 59.5523V60.1891M190.771 59.5523V60.1891M190.771 60.1891V60.8285M190.771 60.1891V60.8285M190.771 60.8285V61.4705M190.771 60.8285V61.4705M190.771 61.4705V62.1153M190.771 61.4705V62.1153M190.771 62.1153V62.7626M190.771 62.1153V62.7626M190.771 62.7626V63.4126M190.771 62.7626V63.4126M190.771 63.4126V64.0652M190.771 63.4126V64.0652M190.771 64.0652V64.7204M190.771 64.0652V64.7204M190.771 64.7204V65.3782M190.771 64.7204V65.3782M190.771 65.3782V66.0386M190.771 65.3782V66.0386M190.771 66.0386V66.7016M190.771 66.0386V66.7016M190.771 66.7016V67.3671M190.771 66.7016V67.3671M190.771 67.3671V68.0351M190.771 67.3671V68.0351M190.771 68.0351V68.7057M190.771 68.0351V68.7057M190.771 68.7057V69.3787M190.771 68.7057V69.3787M190.771 69.3787V70.0543M190.771 69.3787V70.0543M190.771 70.0543V70.7324M190.771 70.0543V70.7324M190.771 70.7324V71.4129M190.771 70.7324V71.4129M190.771 71.4129V72.096M190.771 71.4129V72.096M190.771 72.096V72.7814M190.771 72.096V72.7814M190.771 72.7814V73.4693M190.771 72.7814V73.4693M190.771 73.4693V74.1597M190.771 73.4693V74.1597M190.771 74.1597V74.8524M190.771 74.1597V74.8524M190.771 74.8524V75.5476M190.771 74.8524V75.5476M190.771 75.5476V76.2451M190.771 75.5476V76.2451M190.771 76.2451V76.945M190.771 76.2451V76.945M190.771 76.945V77.6473M190.771 76.945V77.6473M190.771 77.6473V78.3519M190.771 77.6473V78.3519M190.771 78.3519V79.0589M190.771 78.3519V79.0589M190.771 79.0589V79.7682M190.771 79.0589V79.7682M190.771 79.7682V80.4798M190.771 79.7682V80.4798M190.771 80.4798V81.1937M190.771 80.4798V81.1937M190.771 81.1937V81.9099M190.771 81.1937V81.9099M190.771 81.9099V82.6283M190.771 81.9099V82.6283M190.771 82.6283V83.3491M190.771 82.6283V83.3491M190.771 83.3491V84.0721M190.771 83.3491V84.0721M190.771 84.0721V84.7973M190.771 84.0721V84.7973M190.771 84.7973V85.5247M190.771 84.7973V85.5247M190.771 85.5247V86.2544M190.771 85.5247V86.2544M190.771 86.2544V86.9863M190.771 86.2544V86.9863M190.771 86.9863V87.7203M190.771 86.9863V87.7203M190.771 87.7203V88.4565M190.771 87.7203V88.4565M190.771 88.4565V89.1949M190.771 88.4565V89.1949M190.771 89.1949V89.9355M190.771 89.1949V89.9355M190.771 89.9355V90.6781M190.771 89.9355V90.6781M190.771 90.6781V91.4229M190.771 90.6781V91.4229M190.771 91.4229V92.1698M190.771 91.4229V92.1698M190.771 92.1698V92.9189M190.771 92.1698V92.9189M190.771 92.9189V93.67M190.771 92.9189V93.67M190.771 93.67V94.4231M190.771 93.67V94.4231M190.771 94.4231V95.1784M190.771 94.4231V95.1784M190.771 95.1784V95.9357M190.771 95.1784V95.9357M190.771 95.9357V96.695M190.771 95.9357V96.695M190.771 96.695V97.4563M190.771 96.695V97.4563M190.771 97.4563V98.2197M190.771 97.4563V98.2197M190.771 98.2197V98.9851M190.771 98.2197V98.9851M190.771 98.9851V99.7524M190.771 98.9851V99.7524M190.771 99.7524V100.522M190.771 99.7524V100.522M190.771 100.522V101.293M190.771 100.522V101.293M190.771 101.293V102.066M190.771 101.293V102.066M190.771 102.066V102.841M190.771 102.066V102.841M190.771 102.841V103.618M190.771 102.841V103.618M190.771 103.618V104.397M190.771 103.618V104.397M190.771 104.397V105.178M190.771 104.397V105.178M190.771 105.178V105.961M190.771 105.178V105.961M190.771 105.961V106.746M190.771 105.961V106.746M190.771 106.746V107.532M190.771 106.746V107.532M190.771 107.532V108.321M190.771 107.532V108.321M190.771 108.321V109.111M190.771 108.321V109.111M190.771 109.111V109.903M190.771 109.111V109.903M190.771 109.903V110.697M190.771 109.903V110.697M190.771 110.697V111.492M190.771 110.697V111.492M190.771 111.492V112.29M190.771 111.492V112.29M190.771 112.29V113.089M190.771 112.29V113.089M190.771 113.089V113.89M190.771 113.089V113.89M190.771 113.89V114.693M190.771 113.89V114.693M190.771 114.693V115.497M190.771 114.693V115.497M190.771 115.497V116.303M190.771 115.497V116.303M190.771 116.303V117.111M190.771 116.303V117.111M190.771 117.111V117.921M190.771 117.111V117.921M190.771 117.921V118.732M190.771 117.921V118.732M190.771 118.732V119.545M190.771 118.732V119.545M190.771 119.545V120.36M190.771 119.545V120.36M190.771 120.36V121.176M190.771 120.36V121.176M190.771 121.176V121.994M190.771 121.176V121.994M190.771 121.994V122.813M190.771 121.994V122.813M190.771 122.813V123.634M190.771 122.813V123.634M190.771 123.634V124.457M190.771 123.634V124.457M190.771 124.457V125.281M190.771 124.457V125.281M190.771 125.281V126.107M190.771 125.281V126.107M190.771 126.107V126.934M190.771 126.107V126.934M190.771 126.934V127.763M190.771 126.934V127.763M190.771 127.763V128.594M190.771 127.763V128.594M190.771 128.594V129.426M190.771 128.594V129.426M190.771 129.426V130.259M190.771 129.426V130.259M190.771 130.259V131.094M190.771 130.259V131.094M190.771 131.094V131.931M190.771 131.094V131.931M190.771 131.931V132.769M190.771 131.931V132.769M190.771 132.769V133.608M190.771 132.769V133.608M190.771 133.608V134.449M190.771 133.608V134.449M190.771 134.449V135.292M190.771 134.449V135.292M190.771 135.292V136.135M190.771 135.292V136.135M190.771 136.135V136.98M190.771 136.135V136.98M190.771 136.98V137.827M190.771 136.98V137.827M190.771 137.827V138.675M190.771 137.827V138.675M190.771 138.675V139.524M190.771 138.675V139.524M190.771 139.524V140.375M190.771 139.524V140.375M190.771 140.375V141.227M190.771 140.375V141.227M190.771 141.227V142.08M190.771 141.227V142.08M190.771 142.08V142.935M190.771 142.08V142.935M190.771 142.935V143.791M190.771 142.935V143.791M190.771 143.791V144.648M190.771 143.791V144.648M190.771 144.648V145.507M190.771 144.648V145.507M190.771 145.507V146.366M190.771 145.507V146.366M190.771 146.366V147.227M190.771 146.366V147.227M190.771 147.227V148.09M190.771 147.227V148.09M190.771 148.09V148.953M190.771 148.09V148.953M190.771 148.953V149.818M190.771 148.953V149.818M190.771 149.818V150.684M190.771 149.818V150.684M190.771 150.684V151.551M190.771 150.684V151.551M190.771 151.551V152.419M190.771 151.551V152.419M190.771 152.419V153.289M190.771 152.419V153.289M190.771 153.289V154.16M190.771 153.289V154.16M190.771 154.16V155.031M190.771 154.16V155.031M190.771 155.031V155.904M190.771 155.031V155.904M190.771 155.904V156.778M190.771 155.904V156.778M190.771 156.778V157.654M190.771 156.778V157.654M190.771 157.654V158.53M190.771 157.654V158.53M190.771 158.53V159.407M190.771 158.53V159.407M190.771 159.407V160.286M190.771 159.407V160.286M190.771 160.286V161.165M190.771 160.286V161.165M190.771 161.165V162.046M190.771 161.165V162.046M190.771 162.046V162.927M190.771 162.046V162.927M190.771 162.927V163.81M190.771 162.927V163.81M190.771 163.81V164.693M190.771 163.81V164.693M190.771 164.693V165.578M190.771 164.693V165.578M190.771 165.578V166.463M190.771 165.578V166.463M190.771 166.463V167.35M190.771 166.463V167.35M190.771 167.35V168.237M190.771 167.35V168.237M190.771 168.237V169.126M190.771 168.237V169.126M190.771 169.126V170.015M190.771 169.126V170.015M190.771 170.015V170.905M190.771 170.015V170.905M190.771 170.905V171.796M190.771 170.905V171.796M190.771 171.796V172.689M190.771 171.796V172.689M190.771 172.689V173.581M190.771 172.689V173.581M190.771 173.581V174.475M190.771 173.581V174.475M190.771 174.475V175.37M190.771 174.475V175.37M190.771 175.37V176.265M190.771 175.37V176.265M190.771 176.265V177.162M190.771 176.265V177.162M190.771 177.162V178.059M190.771 177.162V178.059M190.771 178.059V178.957M190.771 178.059V178.957M190.771 178.957V179.856M190.771 178.957V179.856M190.771 179.856V180.755M190.771 179.856V180.755M190.771 180.755V181.655M190.771 180.755V181.655M190.771 181.655V182.556M190.771 181.655V182.556M190.771 182.556V183.458M190.771 182.556V183.458M190.771 183.458V184.361M190.771 183.458V184.361M190.771 184.361V185.264M190.771 184.361V185.264M190.771 185.264V186.168M190.771 185.264V186.168M190.771 186.168V187.073M190.771 186.168V187.073M190.771 187.073V187.978M190.771 187.073V187.978M190.771 187.978V188.884M190.771 187.978V188.884M190.771 188.884V189.79M190.771 188.884V189.79M190.771 189.79V190.698M190.771 189.79V190.698M190.771 190.698V191.606M190.771 190.698V191.606M190.771 191.606V192.514M190.771 191.606V192.514M190.771 192.514V193.423M190.771 192.514V193.423M190.771 193.423V194.333M190.771 193.423V194.333M190.771 194.333V195.243M190.771 194.333V195.243M190.771 195.243V196.154M190.771 195.243V196.154M190.771 196.154V197.065M190.771 196.154V197.065M190.771 197.065V197.977M190.771 197.065V197.977M190.771 197.977V198.89M190.771 197.977V198.89M190.771 198.89V199.803M190.771 198.89V199.803M190.771 199.803V200.716M190.771 199.803V200.716M190.771 200.716V201.63M190.771 200.716V201.63M190.771 201.63V202.545M190.771 201.63V202.545M190.771 202.545V203.46M190.771 202.545V203.46M190.771 203.46V204.375M190.771 203.46V204.375M190.771 204.375V205.291M190.771 204.375V205.291M190.771 205.291V206.207M190.771 205.291V206.207M190.771 206.207V207.124M190.771 206.207V207.124M190.771 207.124V208.041M190.771 207.124V208.041M190.771 208.041V208.958M190.771 208.041V208.958M190.771 208.958V209.876M190.771 208.958V209.876M190.771 209.876V210.794M190.771 209.876V210.794M190.771 210.794V211.713M190.771 210.794V211.713M190.771 211.713V212.632M190.771 211.713V212.632M190.771 212.632V213.551M190.771 212.632V213.551M190.771 213.551V214.471M190.771 213.551V214.471M190.771 214.471V215.39M190.771 214.471V215.39M190.771 215.39V216.311M190.771 215.39V216.311M190.771 216.311V217.231M190.771 216.311V217.231M190.771 217.231V218.152M190.771 217.231V218.152M190.771 218.152V219.072M190.771 218.152V219.072M190.771 219.072V219.994M190.771 219.072V219.994M190.771 219.994V220.915M190.771 219.994V220.915M190.771 220.915V221.837M190.771 220.915V221.837M190.771 221.837V222.758M190.771 221.837V222.758M190.771 222.758V223.68M190.771 222.758V223.68M190.771 223.68V224.603M190.771 223.68V224.603M190.771 224.603V225.525M190.771 224.603V225.525M190.771 225.525V226.447M190.771 225.525V226.447M190.771 226.447V227.37M190.771 226.447V227.37M190.771 227.37V228.293M190.771 227.37V228.293M190.771 228.293V229.215M190.771 228.293V229.215M190.771 229.215V230.138M190.771 229.215V230.138M190.771 230.138V231.061M190.771 230.138V231.061M190.771 231.061V231.985M190.771 231.061V231.985M190.771 231.985V232.908M190.771 231.985V232.908M190.771 232.908V233.831M190.771 232.908V233.831M190.771 233.831V234.754M190.771 233.831V234.754M190.771 234.754V235.678M190.771 234.754V235.678M190.771 235.678V236.601M190.771 235.678V236.601M190.771 236.601V237.524M190.771 236.601V237.524M190.771 237.524V238.447M190.771 237.524V238.447M190.771 238.447V239.371M190.771 238.447V239.371M190.771 239.371V240.294M190.771 239.371V240.294M190.771 240.294V241.217M190.771 240.294V241.217M190.771 241.217V242.14M190.771 241.217V242.14M190.771 242.14V243.063M190.771 242.14V243.063M190.771 243.063V243.986M190.771 243.063V243.986M190.771 243.986V244.909M190.771 243.986V244.909M190.771 244.909V245.832M190.771 244.909V245.832M190.771 245.832V246.754M190.771 245.832V246.754M190.771 246.754V247.677M190.771 246.754V247.677M190.771 247.677V248.599M190.771 247.677V248.599M190.771 248.599V249.521M190.771 248.599V249.521M190.771 249.521V250.443M190.771 249.521V250.443M190.771 250.443V251.365M190.771 250.443V251.365M190.771 251.365V252.287M190.771 251.365V252.287M190.771 252.287V253.208M190.771 252.287V253.208M190.771 253.208V254.129M190.771 253.208V254.129M190.771 254.129V255.05M190.771 254.129V255.05M190.771 255.05V255.971M190.771 255.05V255.971M190.771 255.971V256.891M190.771 255.971V256.891M190.771 256.891V257.811M190.771 256.891V257.811M190.771 257.811V258.731M190.771 257.811V258.731M190.771 258.731V259.651M190.771 258.731V259.651M190.771 259.651V260.57M190.771 259.651V260.57M190.771 260.57V261.489M190.771 260.57V261.489M190.771 261.489V262.407M190.771 261.489V262.407M190.771 262.407V263.326M190.771 262.407V263.326M190.771 263.326V264.243M190.771 263.326V264.243M190.771 264.243V265.161M190.771 264.243V265.161M190.771 265.161V266.078M190.771 265.161V266.078M190.771 266.078V266.995M190.771 266.078V266.995M190.771 266.995V267.911M190.771 266.995V267.911M190.771 267.911V268.827M190.771 267.911V268.827M190.771 268.827V269.742M190.771 268.827V269.742M190.771 269.742V270.657M190.771 269.742V270.657M190.771 270.657V271.571M190.771 270.657V271.571M190.771 271.571V272.485M190.771 271.571V272.485M190.771 272.485V273.399M190.771 272.485V273.399M190.771 273.399V274.312M190.771 273.399V274.312M190.771 274.312V275.224M190.771 274.312V275.224M190.771 275.224V276.136M190.771 275.224V276.136M190.771 276.136V277.048M190.771 276.136V277.048M190.771 277.048V277.958M190.771 277.048V277.958M190.771 277.958V278.869M190.771 277.958V278.869M190.771 278.869V279.778M190.771 278.869V279.778M190.771 279.778V280.688M190.771 279.778V280.688M190.771 280.688V281.596M190.771 280.688V281.596M190.771 281.596V282.504M190.771 281.596V282.504M190.771 282.504V283.411M190.771 282.504V283.411M190.771 283.411V284.318M190.771 283.411V284.318M190.771 284.318V285.224M190.771 284.318V285.224M190.771 285.224V286.129M190.771 285.224V286.129M190.771 286.129V287.034M190.771 286.129V287.034M190.771 287.034V287.938M190.771 287.034V287.938M190.771 287.938V288.841M190.771 287.938V288.841M190.771 288.841V289.743M190.771 288.841V289.743M190.771 289.743V290.645M190.771 289.743V290.645M190.771 290.645V291.546M190.771 290.645V291.546M190.771 291.546V292.447M190.771 291.546V292.447M190.771 292.447V293.346M190.771 292.447V293.346M190.771 293.346V294.245M190.771 293.346V294.245M190.771 294.245V295.143M190.771 294.245V295.143M190.771 295.143V296.04M190.771 295.143V296.04M190.771 296.04V296.936M190.771 296.04V296.936M190.771 296.936V297.832M190.771 296.936V297.832M190.771 297.832V298.726M190.771 297.832V298.726M190.771 298.726V299.62M190.771 298.726V299.62M190.771 299.62V300.513M190.771 299.62V300.513M190.771 300.513V301.405M190.771 300.513V301.405M190.771 301.405V302.296M190.771 301.405V302.296M190.771 302.296V303.187M190.771 302.296V303.187M190.771 303.187V304.076M190.771 303.187V304.076M190.771 304.076V304.964M190.771 304.076V304.964M190.771 304.964V305.852M190.771 304.964V305.852M190.771 305.852V306.738M190.771 305.852V306.738M190.771 306.738V307.624M190.771 306.738V307.624M190.771 307.624V308.508M190.771 307.624V308.508M190.771 308.508V309.392M190.771 308.508V309.392M190.771 309.392V310.275M190.771 309.392V310.275M190.771 310.275V311.156M190.771 310.275V311.156M190.771 311.156V312.037M190.771 311.156V312.037M190.771 312.037V312.916M190.771 312.037V312.916M190.771 312.916V313.795M190.771 312.916V313.795M190.771 313.795V314.672M190.771 313.795V314.672M190.771 314.672V315.548M190.771 314.672V315.548M190.771 315.548V316.423M190.771 315.548V316.423M190.771 316.423V317.297M190.771 316.423V317.297M190.771 317.297V318.17M190.771 317.297V318.17M190.771 318.17V319.042M190.771 318.17V319.042M190.771 319.042V319.913M190.771 319.042V319.913M190.771 319.913V320.782M190.771 319.913V320.782M190.771 320.782V321.651M190.771 320.782V321.651M190.771 321.651V322.518M190.771 321.651V322.518M190.771 322.518V323.384M190.771 322.518V323.384M190.771 323.384V324.248M190.771 323.384V324.248M190.771 324.248V325.112M190.771 324.248V325.112M190.771 325.112V325.974M190.771 325.112V325.974M190.771 325.974V326.835M190.771 325.974V326.835M190.771 326.835V327.695M190.771 326.835V327.695M190.771 327.695V328.554M190.771 327.695V328.554M190.771 328.554V329.411M190.771 328.554V329.411M190.771 329.411V330.267M190.771 329.411V330.267M190.771 330.267V331.122M190.771 330.267V331.122M190.771 331.122V331.975M190.771 331.122V331.975M190.771 331.975V332.827M190.771 331.975V332.827M190.771 332.827V333.678M190.771 332.827V333.678M190.771 333.678V334.527M190.771 333.678V334.527M190.771 334.527V335.375M190.771 334.527V335.375M190.771 335.375V336.221M190.771 335.375V336.221M190.771 336.221V337.066M190.771 336.221V337.066M190.771 337.066V337.91M190.771 337.066V337.91M190.771 337.91V338.752M190.771 337.91V338.752M190.771 338.752V339.593M190.771 338.752V339.593M190.771 339.593V340.433M190.771 339.593V340.433M190.771 340.433V341.271M190.771 340.433V341.271M190.771 341.271V342.107M190.771 341.271V342.107M190.771 342.107V342.942M190.771 342.107V342.942M190.771 342.942V343.776M190.771 342.942V343.776M190.771 343.776V344.608M190.771 343.776V344.608M190.771 344.608V345.438M190.771 344.608V345.438M190.771 345.438V346.267M190.771 345.438V346.267M190.771 346.267V347.095M190.771 346.267V347.095M190.771 347.095V347.921M190.771 347.095V347.921M190.771 347.921V348.745M190.771 347.921V348.745M190.771 348.745V349.567M190.771 348.745V349.567M190.771 349.567V350.389M190.771 349.567V350.389M190.771 350.389V351.208M190.771 350.389V351.208M190.771 351.208V352.026M190.771 351.208V352.026M190.771 352.026V352.842M190.771 352.026V352.842M190.771 352.842V353.657M190.771 352.842V353.657M190.771 353.657V354.47M190.771 353.657V354.47M190.771 354.47V355.281M190.771 354.47V355.281M190.771 355.281V356.091M190.771 355.281V356.091M190.771 356.091V356.898M190.771 356.091V356.898M190.771 356.898V357.705M190.771 356.898V357.705M190.771 357.705V358.509M190.771 357.705V358.509M190.771 358.509V359.312M190.771 358.509V359.312M190.771 359.312V360.113M190.771 359.312V360.113M190.771 360.113V360.912M190.771 360.113V360.912M190.771 360.912V361.709M190.771 360.912V361.709M190.771 361.709V362.505M190.771 361.709V362.505M190.771 362.505V363.299M190.771 362.505V363.299M190.771 363.299V364.091M190.771 363.299V364.091M190.771 364.091V364.881M190.771 364.091V364.881M190.771 364.881V365.669M190.771 364.881V365.669M190.771 365.669V366.456M190.771 365.669V366.456M190.771 366.456V367.241M190.771 366.456V367.241M190.771 367.241V368.023M190.771 367.241V368.023M190.771 368.023V368.804M190.771 368.023V368.804M190.771 368.804V369.583M190.771 368.804V369.583M190.771 369.583V370.36M190.771 369.583V370.36M190.771 370.36V371.135M190.771 370.36V371.135M190.771 371.135V371.909M190.771 371.135V371.909M190.771 371.909V372.68M190.771 371.909V372.68M190.771 372.68V373.449M190.771 372.68V373.449M190.771 373.449V374.217M190.771 373.449V374.217M190.771 374.217V374.982M190.771 374.217V374.982M190.771 374.982V375.745M190.771 374.982V375.745M190.771 375.745V376.507M190.771 375.745V376.507M190.771 376.507V377.266M190.771 376.507V377.266M190.771 377.266V378.023M190.771 377.266V378.023M190.771 378.023V378.779M190.771 378.023V378.779M190.771 378.779V379.532M190.771 378.779V379.532M190.771 379.532V380.283M190.771 379.532V380.283M190.771 380.283V381.032M190.771 380.283V381.032M190.771 381.032V381.779M190.771 381.032V381.779M190.771 381.779V382.524M190.771 381.779V382.524M190.771 382.524V383.266M190.771 382.524V383.266M190.771 383.266V384.007M190.771 383.266V384.007M190.771 384.007V384.745M190.771 384.007V384.745M190.771 384.745V385.481M190.771 384.745V385.481M190.771 385.481V386.215M190.771 385.481V386.215M190.771 386.215V386.947M190.771 386.215V386.947M190.771 386.947V387.677M190.771 386.947V387.677M190.771 387.677V388.404M190.771 387.677V388.404M190.771 388.404V389.13M190.771 388.404V389.13M190.771 389.13V389.853M190.771 389.13V389.853M190.771 389.853V390.573M190.771 389.853V390.573M190.771 390.573V391.292M190.771 390.573V391.292M190.771 391.292V392.008M190.771 391.292V392.008M190.771 392.008V392.722M190.771 392.008V392.722M190.771 392.722V393.434M190.771 392.722V393.434M190.771 393.434V394.143M190.771 393.434V394.143M190.771 394.143V394.85M190.771 394.143V394.85M190.771 394.85V395.554M190.771 394.85V395.554M190.771 395.554V396.257M190.771 395.554V396.257M190.771 396.257V396.957M190.771 396.257V396.957M190.771 396.957V397.654M190.771 396.957V397.654M190.771 397.654V398.349M190.771 397.654V398.349M190.771 398.349V399.042M190.771 398.349V399.042M190.771 399.042V399.732M190.771 399.042V399.732M190.771 399.732V400.42M190.771 399.732V400.42M190.771 400.42V401.106M190.771 400.42V401.106M190.771 401.106V401.789M190.771 401.106V401.789M190.771 401.789V402.469M190.771 401.789V402.469M190.771 402.469V403.147M190.771 402.469V403.147M190.771 403.147V403.823M190.771 403.147V403.823M190.771 403.823V404.496M190.771 403.823V404.496M190.771 404.496V405.167M190.771 404.496V405.167M190.771 405.167V405.835M190.771 405.167V405.835M190.771 405.835V406.5M190.771 405.835V406.5M190.771 406.5V407.163M190.771 406.5V407.163M190.771 407.163V407.823M190.771 407.163V407.823M190.771 407.823V408.481M190.771 407.823V408.481M190.771 408.481V409.136M190.771 408.481V409.136M190.771 409.136V409.789M190.771 409.136V409.789M190.771 409.789V410.439M190.771 409.789V410.439M190.771 410.439V411.086M190.771 410.439V411.086M190.771 411.086V411.731M190.771 411.086V411.731M190.771 411.731V412.373M190.771 411.731V412.373M190.771 412.373V413.013M190.771 412.373V413.013M190.771 413.013V413.649M190.771 413.013V413.649M190.771 413.649V414.283M190.771 413.649V414.283M190.771 414.283V414.915M190.771 414.283V414.915M190.771 414.915V415.543M190.771 414.915V415.543M190.771 415.543V416.169M190.771 415.543V416.169M190.771 416.169V416.792M190.771 416.169V416.792M190.771 416.792V417.413M190.771 416.792V417.413M190.771 417.413V418.03M190.771 417.413V418.03M190.771 418.03V418.645M190.771 418.03V418.645M190.771 418.645V419.257M190.771 418.645V419.257M190.771 419.257V419.867M190.771 419.257V419.867M190.771 419.867V420.473M190.771 419.867V420.473M190.771 420.473V421.077M190.771 420.473V421.077M190.771 421.077V421.677M190.771 421.077V421.677M190.771 421.677V422.275M190.771 421.677V422.275M190.771 422.275V422.87M190.771 422.275V422.87M190.771 422.87V423.463M190.771 422.87V423.463M190.771 423.463V424.052M190.771 423.463V424.052M190.771 424.052V424.638M190.771 424.052V424.638M190.771 424.638V425.222M190.771 424.638V425.222M190.771 425.222V425.802V425.222Z" stroke="#E5E7EB"/>
<path d="M186.006 35.779C186.006 19.2117 172.02 5.74658 154.722 5.74658H154.466H154.209H153.952H153.694H153.435H153.175H152.915H152.654H152.392H152.129H151.866H151.601H151.337H151.071H150.804H150.537H150.269H150.001H149.731H149.461H149.19H148.919H148.647H148.374H148.1H147.826H147.551H147.275H146.998H146.721H146.443H146.165H145.885H145.605H145.325H145.044H144.762H144.479H144.196H143.912H143.627H143.342H143.056H142.769H142.482H142.194H141.906H141.616H141.327H141.036H140.745H140.453H140.161H139.868H139.574H139.28H138.985H138.69H138.394H138.097H137.8H137.502H137.204H136.905H136.605H136.305H136.004H135.703H135.401H135.099H134.796H134.492H134.188H133.883H133.578H133.272H132.965H132.658H132.351H132.043H131.734H131.425H131.115H130.805H130.495H130.183H129.872H129.559H129.246H128.933H128.619H128.305H127.99H127.675H127.359H127.043H126.726H126.409H126.091H125.773H125.454H125.135H124.815H124.495H124.174H123.853H123.532H123.21H122.887H122.564H122.241H121.917H121.593H121.268H120.943H120.617H120.291H119.965H119.638H119.311H118.983H118.655H118.327H117.998H117.669H117.339H117.009H116.678H116.348H116.016H115.685H115.353H115.02H114.687H114.354H114.021H113.687H113.352H113.018H112.683H112.347H112.012H111.676H111.339H111.003H110.666H110.328H109.99H109.652H109.314H108.975H108.636H108.297H107.957H107.617H107.277H106.936H106.595H106.254H105.912H105.571H105.229H104.886H104.543H104.201H103.857H103.514H103.17H102.826H102.482H102.137H101.792H101.447H101.102H100.756H100.41H100.064H99.7178H99.3712H99.0244H98.6773H98.3301H97.9825H97.6348H97.2869H96.9387H96.5903H96.2417H95.8929H95.5439H95.1947H94.8453H94.4957H94.1459H93.7959H93.4457H93.0953H92.7448H92.3941H92.0432H91.6921H91.3409H90.9895H90.6379H90.2862H89.9343H89.5823H89.2301H88.8778H88.5253H88.1727H87.8199H87.467H87.114H86.7609H86.4076H86.0542H85.7007H85.3471H84.9933H84.6395H84.2855H83.9314H83.5773H83.223H82.8686H82.5142H82.1597H81.805H81.4503H81.0955H80.7407H80.3857H80.0307H79.6756H79.3205H78.9653H78.61H78.2547H77.8993H77.5439H77.1885H76.8329H76.4774H76.1218H75.7662H75.4106H75.0549H74.6992H74.3435H73.9877H73.632H73.2762H72.9204H72.5646H72.2089H71.8531H71.4973H71.1415H70.7857H70.43H70.0742H69.7185H69.3628H69.0071H68.6515H68.2959H67.9403H67.5848H67.2292H66.8738H66.5184H66.163H65.8077H65.4524H65.0972H64.7421H64.387H64.032H63.677H63.3222H62.9674H62.6127H62.2581H61.9035H61.5491H61.1947H60.8404H60.4863H60.1322H59.7782H59.4244H59.0706H58.717H58.3635H58.0101H57.6568H57.3037H56.9507H56.5978H56.245H55.8924H55.5399H55.1876H54.8354H54.4834H54.1315H53.7798H53.4282H53.0768H52.7256H52.3745H52.0236H51.6729H51.3224H50.972H50.6218H50.2718H49.922H49.5724H49.223H48.8738H48.5248H48.176H47.8274H47.479H47.1308H46.7829H46.4351H46.0876H45.7403H45.3933H45.0465H44.6999H44.3535H44.0074H43.6616H43.316H42.9706H42.6255H42.2807H41.9361H41.5918H41.2477H40.9039H40.5604H40.2172H39.8742H39.5315H39.1891H38.847H38.5052H38.1637H37.8225H37.4816H37.1409H36.8006H36.4606H36.1209H35.7816H35.4425H35.1038H34.7654H34.4273H34.0895H33.7521H33.4151H33.0783H32.7419H32.4059H32.0702H31.7348H31.3998H31.0652H30.7309H30.397H30.0635H29.7303H29.3975H29.0651H28.7331H28.4014H28.0701H27.7393H27.4088H27.0787H26.749H26.4197H26.0908H25.7623H25.4343H25.1066H24.7794H24.4525H24.1262H23.8002H23.4746H23.1495H22.8249H22.5006H22.1768H21.8535H21.5306H21.2081H20.8861H20.5646H20.2435H19.9229H19.6027H19.283H18.9638H18.6451H18.3268H18.009H17.6917H17.3749H17.0586H16.7428H16.4275H16.1126H15.7983H15.4845H15.1712H14.8584H14.5461H14.2343H13.9231H13.6124H13.3022H12.9925H12.6834H12.3748H12.0667H11.7592H11.4522H11.1458H10.84H10.5346H10.2299H9.92569H9.62205H9.31899H9.01649H8.71457H8.41323H8.11246H7.81227H7.51268H7.21367H6.91525H6.61742H6.32019H6.02357H5.72755H5.43213H5.13732H4.84313H4.54955H4.25659H3.96426H3.67255H3.38146H3.09101H2.80119H2.51201H2.22347H1.93557H1.64833H1.36172H1.07578H0.790485H0.505852H0.221882H-0.0614243H-0.344063H-0.62603H-0.907322H-1.18794H-1.46787H-1.74712H-2.02569H-2.30357H-2.58075H-2.85724H-3.13303H-3.40812H-3.6825H-3.95617H-4.22914H-4.50139H-4.77292H-5.04374H-5.31382H-5.58319H-5.85182H-6.11972H-6.38689H-6.65332H-6.919H-7.18394H-7.44814H-7.71158H-7.97427H-8.23621H-8.49738H-8.75779H-9.01743H-9.27631H-9.53441H-9.79173H-10.0483H-10.3041C-27.6018 5.74658 -41.5899 19.2117 -41.5899 35.779V36.2727V36.7698V37.2703V37.7742V38.2815V38.7921V39.3061V39.8235V40.3441V40.8681V41.3953V41.9258V42.4596V42.9967V43.5369V44.0805V44.6272V45.1771V45.7302V46.2865V46.8459V47.4085V47.9743V48.5431V49.115V49.6901V50.2682V50.8494V51.4336V52.0209V52.6112V53.2045V53.8008V54.4001V55.0024V55.6076V56.2158V56.8269V57.4409V58.0578V58.6777V59.3004V59.9259V60.5543V61.1856V61.8197V62.4566V63.0963V63.7387V64.384V65.032V65.6827V66.3362V66.9924V67.6513V68.3129V68.9772V69.6441V70.3137V70.9859V71.6607V72.3382V73.0182V73.7009V74.3861V75.0738V75.7642V76.457V77.1523V77.8502V78.5505V79.2534V79.9587V80.6664V81.3766V82.0892V82.8042V83.5216V84.2414V84.9635V85.688V86.4149V87.1441V87.8756V88.6094V89.3455V90.0838V90.8245V91.5674V92.3125V93.0598V93.8093V94.5611V95.315V96.0711V96.8294V97.5898V98.3523V99.1169V99.8836V100.652V101.423V102.196V102.971V103.748V104.527V105.309V106.092V106.877V107.664V108.453V109.244V110.036V110.831V111.628V112.426V113.227V114.029V114.833V115.639V116.447V117.257V118.068V118.881V119.696V120.513V121.331V122.151V122.973V123.797V124.622V125.449V126.277V127.108V127.94V128.773V129.608V130.445V131.283V132.123V132.964V133.807V134.652V135.498V136.345V137.194V138.045V138.896V139.75V140.605V141.461V142.318V143.177V144.038V144.899V145.762V146.627V147.493V148.36V149.228V150.098V150.968V151.841V152.714V153.589V154.465V155.342V156.22V157.099V157.98V158.862V159.745V160.629V161.514V162.4V163.287V164.176V165.065V165.956V166.847V167.74V168.633V169.528V170.423V171.32V172.217V173.115V174.015V174.915V175.816V176.718V177.621V178.524V179.429V180.334V181.24V182.147V183.055V183.964V184.873V185.783V186.694V187.605V188.518V189.431V190.344V191.259V192.173V193.089V194.005V194.922V195.84V196.758V197.676V198.595V199.515V200.435V201.356V202.277V203.199V204.121V205.044V205.967V206.891V207.815V208.739V209.664V210.589V211.515V212.441V213.367V214.294V215.221V216.148V217.076V218.004V218.932V219.86V220.789V221.718V222.647V223.576V224.506V225.435V226.365V227.295V228.225V229.155V230.086V231.016V231.946V232.877V233.808V234.738V235.669V236.6V237.53V238.461V239.392V240.322V241.253V242.183V243.114V244.044V244.974V245.904V246.834V247.764V248.694V249.623V250.552V251.481V252.41V253.339V254.267V255.195V256.123V257.051V257.978V258.905V259.832V260.758V261.684V262.61V263.535V264.46V265.384V266.308V267.232V268.155V269.078V270V270.922V271.843V272.764V273.684V274.604V275.523V276.442V277.36V278.277V279.194V280.11V281.026V281.941V282.855V283.768V284.681V285.594V286.505V287.416V288.326V289.235V290.144V291.052V291.959V292.865V293.77V294.675V295.578V296.481V297.383V298.284V299.185V300.084V300.982V301.88V302.776V303.672V304.566V305.46V306.352V307.244V308.134V309.024V309.912V310.799V311.685V312.571V313.455V314.337V315.219V316.1V316.979V317.858V318.735V319.61V320.485V321.358V322.231V323.102V323.971V324.84V325.707V326.572V327.437V328.3V329.162V330.022V330.881V331.738V332.595V333.449V334.303V335.155V336.005V336.854V337.701V338.547V339.392V340.235V341.076V341.916V342.754V343.591V344.426V345.26V346.091V346.922V347.75V348.577V349.402V350.226V351.048V351.868V352.686V353.503V354.318V355.131V355.943V356.752V357.56V358.366V359.17V359.972V360.773V361.571V362.368V363.163V363.956V364.746V365.535V366.323V367.108V367.891V368.672V369.451V370.228V371.003V371.776V372.547V373.316V374.082V374.847V375.609V376.37V377.128V377.884V378.638V379.39V380.139V380.887V381.632V382.375V383.115V383.854V384.59V385.324V386.055V386.784V387.511V388.236V388.958V389.678V390.395V391.11V391.823V392.533V393.24V393.946V394.649V395.349V396.047V396.742V397.435V398.125V398.813V399.498V400.181V400.861V401.538V402.213V402.885V403.555V404.222V404.886V405.548V406.207V406.863V407.516V408.167V408.815V409.46V410.103V410.743V411.379V412.014V412.645V413.273V413.899V414.521V415.141V415.758V416.372V416.983V417.592V418.197V418.799V419.398V419.995V420.588V421.178V421.766V422.35V422.931V423.509V424.084V424.656V425.225V425.791V426.353V426.913V427.469V428.022V428.572V429.119V429.662V430.202V430.74V431.273V431.804V432.331V432.855V433.376V433.893V434.407V434.918V435.425V435.929V436.429V436.926V437.42C-41.5899 453.987 -27.6018 467.453 -10.3041 467.453H-10.0483H-9.79173H-9.53441H-9.27631H-9.01743H-8.75779H-8.49738H-8.23621H-7.97427H-7.71158H-7.44814H-7.18394H-6.919H-6.65332H-6.38689H-6.11972H-5.85182H-5.58319H-5.31382H-5.04374H-4.77292H-4.50139H-4.22914H-3.95617H-3.6825H-3.40812H-3.13303H-2.85724H-2.58075H-2.30357H-2.02569H-1.74712H-1.46787H-1.18794H-0.907322H-0.62603H-0.344063H-0.0614243H0.221882H0.505852H0.790485H1.07578H1.36172H1.64833H1.93557H2.22347H2.51201H2.80119H3.09101H3.38146H3.67255H3.96426H4.25659H4.54955H4.84313H5.13732H5.43213H5.72755H6.02357H6.32019H6.61742H6.91525H7.21367H7.51268H7.81227H8.11246H8.41323H8.71457H9.01649H9.31899H9.62205H9.92569H10.2299H10.5346H10.84H11.1458H11.4522H11.7592H12.0667H12.3748H12.6834H12.9925H13.3022H13.6124H13.9231H14.2343H14.5461H14.8584H15.1712H15.4845H15.7983H16.1126H16.4275H16.7428H17.0586H17.3749H17.6917H18.009H18.3268H18.6451H18.9638H19.283H19.6027H19.9229H20.2435H20.5646H20.8861H21.2081H21.5306H21.8535H22.1768H22.5006H22.8249H23.1495H23.4746H23.8002H24.1262H24.4525H24.7794H25.1066H25.4343H25.7623H26.0908H26.4197H26.749H27.0787H27.4088H27.7393H28.0701H28.4014H28.7331H29.0651H29.3975H29.7303H30.0635H30.397H30.7309H31.0652H31.3998H31.7348H32.0702H32.4059H32.7419H33.0783H33.4151H33.7521H34.0895H34.4273H34.7654H35.1038H35.4425H35.7816H36.1209H36.4606H36.8006H37.1409H37.4816H37.8225H38.1637H38.5052H38.847H39.1891H39.5315H39.8742H40.2172H40.5604H40.9039H41.2477H41.5918H41.9361H42.2807H42.6255H42.9706H43.316H43.6616H44.0074H44.3535H44.6999H45.0465H45.3933H45.7403H46.0876H46.4351H46.7829H47.1308H47.479H47.8274H48.176H48.5248H48.8738H49.223H49.5724H49.922H50.2718H50.6218H50.972H51.3224H51.6729H52.0236H52.3745H52.7256H53.0768H53.4282H53.7798H54.1315H54.4834H54.8354H55.1876H55.5399H55.8924H56.245H56.5978H56.9507H57.3037H57.6568H58.0101H58.3635H58.717H59.0706H59.4244H59.7782H60.1322H60.4863H60.8404H61.1947H61.5491H61.9035H62.2581H62.6127H62.9674H63.3222H63.677H64.032H64.387H64.7421H65.0972H65.4524H65.8077H66.163H66.5184H66.8738H67.2292H67.5848H67.9403H68.2959H68.6515H69.0071H69.3628H69.7185H70.0742H70.43H70.7857H71.1415H71.4973H71.8531H72.2089H72.5646H72.9204H73.2762H73.632H73.9877H74.3435H74.6992H75.0549H75.4106H75.7662H76.1218H76.4774H76.8329H77.1885H77.5439H77.8993H78.2547H78.61H78.9653H79.3205H79.6756H80.0307H80.3857H80.7407H81.0955H81.4503H81.805H82.1597H82.5142H82.8686H83.223H83.5773H83.9314H84.2855H84.6395H84.9933H85.3471H85.7007H86.0542H86.4076H86.7609H87.114H87.467H87.8199H88.1727H88.5253H88.8778H89.2301H89.5823H89.9343H90.2862H90.6379H90.9895H91.3409H91.6921H92.0432H92.3941H92.7448H93.0953H93.4457H93.7959H94.1459H94.4957H94.8453H95.1947H95.5439H95.8929H96.2417H96.5903H96.9387H97.2869H97.6348H97.9825H98.3301H98.6773H99.0244H99.3712H99.7178H100.064H100.41H100.756H101.102H101.447H101.792H102.137H102.482H102.826H103.17H103.514H103.857H104.201H104.543H104.886H105.229H105.571H105.912H106.254H106.595H106.936H107.277H107.617H107.957H108.297H108.636H108.975H109.314H109.652H109.99H110.328H110.666H111.003H111.339H111.676H112.012H112.347H112.683H113.018H113.352H113.687H114.021H114.354H114.687H115.02H115.353H115.685H116.016H116.348H116.678H117.009H117.339H117.669H117.998H118.327H118.655H118.983H119.311H119.638H119.965H120.291H120.617H120.943H121.268H121.593H121.917H122.241H122.564H122.887H123.21H123.532H123.853H124.174H124.495H124.815H125.135H125.454H125.773H126.091H126.409H126.726H127.043H127.359H127.675H127.99H128.305H128.619H128.933H129.246H129.559H129.872H130.183H130.495H130.805H131.115H131.425H131.734H132.043H132.351H132.658H132.965H133.272H133.578H133.883H134.188H134.492H134.796H135.099H135.401H135.703H136.004H136.305H136.605H136.905H137.204H137.502H137.8H138.097H138.394H138.69H138.985H139.28H139.574H139.868H140.161H140.453H140.745H141.036H141.327H141.616H141.906H142.194H142.482H142.769H143.056H143.342H143.627H143.912H144.196H144.479H144.762H145.044H145.325H145.605H145.885H146.165H146.443H146.721H146.998H147.275H147.551H147.826H148.1H148.374H148.647H148.919H149.19H149.461H149.731H150.001H150.269H150.537H150.804H151.071H151.337H151.601H151.866H152.129H152.392H152.654H152.915H153.175H153.435H153.694H153.952H154.209H154.466H154.722C172.02 467.453 186.006 453.987 186.006 437.42V35.779ZM186.006 35.779V36.2727M186.006 35.779V36.2727M186.006 36.2727V36.7698M186.006 36.2727V36.7698M186.006 36.7698V37.2703M186.006 36.7698V37.2703M186.006 37.2703V37.7742M186.006 37.2703V37.7742M186.006 37.7742V38.2815M186.006 37.7742V38.2815M186.006 38.2815V38.7921M186.006 38.2815V38.7921M186.006 38.7921V39.3061M186.006 38.7921V39.3061M186.006 39.3061V39.8235M186.006 39.3061V39.8235M186.006 39.8235V40.3441M186.006 39.8235V40.3441M186.006 40.3441V40.8681M186.006 40.3441V40.8681M186.006 40.8681V41.3953M186.006 40.8681V41.3953M186.006 41.3953V41.9258M186.006 41.3953V41.9258M186.006 41.9258V42.4596M186.006 41.9258V42.4596M186.006 42.4596V42.9967M186.006 42.4596V42.9967M186.006 42.9967V43.5369M186.006 42.9967V43.5369M186.006 43.5369V44.0805M186.006 43.5369V44.0805M186.006 44.0805V44.6272M186.006 44.0805V44.6272M186.006 44.6272V45.1771M186.006 44.6272V45.1771M186.006 45.1771V45.7302M186.006 45.1771V45.7302M186.006 45.7302V46.2865M186.006 45.7302V46.2865M186.006 46.2865V46.8459M186.006 46.2865V46.8459M186.006 46.8459V47.4085M186.006 46.8459V47.4085M186.006 47.4085V47.9743M186.006 47.4085V47.9743M186.006 47.9743V48.5431M186.006 47.9743V48.5431M186.006 48.5431V49.115M186.006 48.5431V49.115M186.006 49.115V49.6901M186.006 49.115V49.6901M186.006 49.6901V50.2682M186.006 49.6901V50.2682M186.006 50.2682V50.8494M186.006 50.2682V50.8494M186.006 50.8494V51.4336M186.006 50.8494V51.4336M186.006 51.4336V52.0209M186.006 51.4336V52.0209M186.006 52.0209V52.6112M186.006 52.0209V52.6112M186.006 52.6112V53.2045M186.006 52.6112V53.2045M186.006 53.2045V53.8008M186.006 53.2045V53.8008M186.006 53.8008V54.4001M186.006 53.8008V54.4001M186.006 54.4001V55.0024M186.006 54.4001V55.0024M186.006 55.0024V55.6076M186.006 55.0024V55.6076M186.006 55.6076V56.2158M186.006 55.6076V56.2158M186.006 56.2158V56.8269M186.006 56.2158V56.8269M186.006 56.8269V57.4409M186.006 56.8269V57.4409M186.006 57.4409V58.0578M186.006 57.4409V58.0578M186.006 58.0578V58.6777M186.006 58.0578V58.6777M186.006 58.6777V59.3004M186.006 58.6777V59.3004M186.006 59.3004V59.9259M186.006 59.3004V59.9259M186.006 59.9259V60.5543M186.006 59.9259V60.5543M186.006 60.5543V61.1856M186.006 60.5543V61.1856M186.006 61.1856V61.8197M186.006 61.1856V61.8197M186.006 61.8197V62.4566M186.006 61.8197V62.4566M186.006 62.4566V63.0963M186.006 62.4566V63.0963M186.006 63.0963V63.7387M186.006 63.0963V63.7387M186.006 63.7387V64.384M186.006 63.7387V64.384M186.006 64.384V65.032M186.006 64.384V65.032M186.006 65.032V65.6827M186.006 65.032V65.6827M186.006 65.6827V66.3362M186.006 65.6827V66.3362M186.006 66.3362V66.9924M186.006 66.3362V66.9924M186.006 66.9924V67.6513M186.006 66.9924V67.6513M186.006 67.6513V68.3129M186.006 67.6513V68.3129M186.006 68.3129V68.9772M186.006 68.3129V68.9772M186.006 68.9772V69.6441M186.006 68.9772V69.6441M186.006 69.6441V70.3137M186.006 69.6441V70.3137M186.006 70.3137V70.9859M186.006 70.3137V70.9859M186.006 70.9859V71.6607M186.006 70.9859V71.6607M186.006 71.6607V72.3382M186.006 71.6607V72.3382M186.006 72.3382V73.0182M186.006 72.3382V73.0182M186.006 73.0182V73.7009M186.006 73.0182V73.7009M186.006 73.7009V74.3861M186.006 73.7009V74.3861M186.006 74.3861V75.0738M186.006 74.3861V75.0738M186.006 75.0738V75.7642M186.006 75.0738V75.7642M186.006 75.7642V76.457M186.006 75.7642V76.457M186.006 76.457V77.1523M186.006 76.457V77.1523M186.006 77.1523V77.8502M186.006 77.1523V77.8502M186.006 77.8502V78.5505M186.006 77.8502V78.5505M186.006 78.5505V79.2534M186.006 78.5505V79.2534M186.006 79.2534V79.9587M186.006 79.2534V79.9587M186.006 79.9587V80.6664M186.006 79.9587V80.6664M186.006 80.6664V81.3766M186.006 80.6664V81.3766M186.006 81.3766V82.0892M186.006 81.3766V82.0892M186.006 82.0892V82.8042M186.006 82.0892V82.8042M186.006 82.8042V83.5216M186.006 82.8042V83.5216M186.006 83.5216V84.2414M186.006 83.5216V84.2414M186.006 84.2414V84.9635M186.006 84.2414V84.9635M186.006 84.9635V85.688M186.006 84.9635V85.688M186.006 85.688V86.4149M186.006 85.688V86.4149M186.006 86.4149V87.1441M186.006 86.4149V87.1441M186.006 87.1441V87.8756M186.006 87.1441V87.8756M186.006 87.8756V88.6094M186.006 87.8756V88.6094M186.006 88.6094V89.3455M186.006 88.6094V89.3455M186.006 89.3455V90.0838M186.006 89.3455V90.0838M186.006 90.0838V90.8245M186.006 90.0838V90.8245M186.006 90.8245V91.5674M186.006 90.8245V91.5674M186.006 91.5674V92.3125M186.006 91.5674V92.3125M186.006 92.3125V93.0598M186.006 92.3125V93.0598M186.006 93.0598V93.8093M186.006 93.0598V93.8093M186.006 93.8093V94.5611M186.006 93.8093V94.5611M186.006 94.5611V95.315M186.006 94.5611V95.315M186.006 95.315V96.0711M186.006 95.315V96.0711M186.006 96.0711V96.8294M186.006 96.0711V96.8294M186.006 96.8294V97.5898M186.006 96.8294V97.5898M186.006 97.5898V98.3523M186.006 97.5898V98.3523M186.006 98.3523V99.1169M186.006 98.3523V99.1169M186.006 99.1169V99.8836M186.006 99.1169V99.8836M186.006 99.8836V100.652M186.006 99.8836V100.652M186.006 100.652V101.423M186.006 100.652V101.423M186.006 101.423V102.196M186.006 101.423V102.196M186.006 102.196V102.971M186.006 102.196V102.971M186.006 102.971V103.748M186.006 102.971V103.748M186.006 103.748V104.527M186.006 103.748V104.527M186.006 104.527V105.309M186.006 104.527V105.309M186.006 105.309V106.092M186.006 105.309V106.092M186.006 106.092V106.877M186.006 106.092V106.877M186.006 106.877V107.664M186.006 106.877V107.664M186.006 107.664V108.453M186.006 107.664V108.453M186.006 108.453V109.244M186.006 108.453V109.244M186.006 109.244V110.036M186.006 109.244V110.036M186.006 110.036V110.831M186.006 110.036V110.831M186.006 110.831V111.628M186.006 110.831V111.628M186.006 111.628V112.426M186.006 111.628V112.426M186.006 112.426V113.227M186.006 112.426V113.227M186.006 113.227V114.029M186.006 113.227V114.029M186.006 114.029V114.833M186.006 114.029V114.833M186.006 114.833V115.639M186.006 114.833V115.639M186.006 115.639V116.447M186.006 115.639V116.447M186.006 116.447V117.257M186.006 116.447V117.257M186.006 117.257V118.068M186.006 117.257V118.068M186.006 118.068V118.881M186.006 118.068V118.881M186.006 118.881V119.696M186.006 118.881V119.696M186.006 119.696V120.513M186.006 119.696V120.513M186.006 120.513V121.331M186.006 120.513V121.331M186.006 121.331V122.151M186.006 121.331V122.151M186.006 122.151V122.973M186.006 122.151V122.973M186.006 122.973V123.797M186.006 122.973V123.797M186.006 123.797V124.622M186.006 123.797V124.622M186.006 124.622V125.449M186.006 124.622V125.449M186.006 125.449V126.277M186.006 125.449V126.277M186.006 126.277V127.108M186.006 126.277V127.108M186.006 127.108V127.94M186.006 127.108V127.94M186.006 127.94V128.773M186.006 127.94V128.773M186.006 128.773V129.608M186.006 128.773V129.608M186.006 129.608V130.445M186.006 129.608V130.445M186.006 130.445V131.283M186.006 130.445V131.283M186.006 131.283V132.123M186.006 131.283V132.123M186.006 132.123V132.964M186.006 132.123V132.964M186.006 132.964V133.807M186.006 132.964V133.807M186.006 133.807V134.652M186.006 133.807V134.652M186.006 134.652V135.498M186.006 134.652V135.498M186.006 135.498V136.345M186.006 135.498V136.345M186.006 136.345V137.194M186.006 136.345V137.194M186.006 137.194V138.045M186.006 137.194V138.045M186.006 138.045V138.896M186.006 138.045V138.896M186.006 138.896V139.75M186.006 138.896V139.75M186.006 139.75V140.605M186.006 139.75V140.605M186.006 140.605V141.461M186.006 140.605V141.461M186.006 141.461V142.318M186.006 141.461V142.318M186.006 142.318V143.177M186.006 142.318V143.177M186.006 143.177V144.038M186.006 143.177V144.038M186.006 144.038V144.899M186.006 144.038V144.899M186.006 144.899V145.762M186.006 144.899V145.762M186.006 145.762V146.627M186.006 145.762V146.627M186.006 146.627V147.493M186.006 146.627V147.493M186.006 147.493V148.36M186.006 147.493V148.36M186.006 148.36V149.228M186.006 148.36V149.228M186.006 149.228V150.098M186.006 149.228V150.098M186.006 150.098V150.968M186.006 150.098V150.968M186.006 150.968V151.841M186.006 150.968V151.841M186.006 151.841V152.714M186.006 151.841V152.714M186.006 152.714V153.589M186.006 152.714V153.589M186.006 153.589V154.465M186.006 153.589V154.465M186.006 154.465V155.342M186.006 154.465V155.342M186.006 155.342V156.22M186.006 155.342V156.22M186.006 156.22V157.099M186.006 156.22V157.099M186.006 157.099V157.98M186.006 157.099V157.98M186.006 157.98V158.862M186.006 157.98V158.862M186.006 158.862V159.745M186.006 158.862V159.745M186.006 159.745V160.629M186.006 159.745V160.629M186.006 160.629V161.514M186.006 160.629V161.514M186.006 161.514V162.4M186.006 161.514V162.4M186.006 162.4V163.287M186.006 162.4V163.287M186.006 163.287V164.176M186.006 163.287V164.176M186.006 164.176V165.065M186.006 164.176V165.065M186.006 165.065V165.956M186.006 165.065V165.956M186.006 165.956V166.847M186.006 165.956V166.847M186.006 166.847V167.74M186.006 166.847V167.74M186.006 167.74V168.633M186.006 167.74V168.633M186.006 168.633V169.528M186.006 168.633V169.528M186.006 169.528V170.423M186.006 169.528V170.423M186.006 170.423V171.32M186.006 170.423V171.32M186.006 171.32V172.217M186.006 171.32V172.217M186.006 172.217V173.115M186.006 172.217V173.115M186.006 173.115V174.015M186.006 173.115V174.015M186.006 174.015V174.915M186.006 174.015V174.915M186.006 174.915V175.816M186.006 174.915V175.816M186.006 175.816V176.718M186.006 175.816V176.718M186.006 176.718V177.621M186.006 176.718V177.621M186.006 177.621V178.524M186.006 177.621V178.524M186.006 178.524V179.429M186.006 178.524V179.429M186.006 179.429V180.334M186.006 179.429V180.334M186.006 180.334V181.24M186.006 180.334V181.24M186.006 181.24V182.147M186.006 181.24V182.147M186.006 182.147V183.055M186.006 182.147V183.055M186.006 183.055V183.964M186.006 183.055V183.964M186.006 183.964V184.873M186.006 183.964V184.873M186.006 184.873V185.783M186.006 184.873V185.783M186.006 185.783V186.694M186.006 185.783V186.694M186.006 186.694V187.605M186.006 186.694V187.605M186.006 187.605V188.518M186.006 187.605V188.518M186.006 188.518V189.431M186.006 188.518V189.431M186.006 189.431V190.344M186.006 189.431V190.344M186.006 190.344V191.259M186.006 190.344V191.259M186.006 191.259V192.173M186.006 191.259V192.173M186.006 192.173V193.089M186.006 192.173V193.089M186.006 193.089V194.005M186.006 193.089V194.005M186.006 194.005V194.922M186.006 194.005V194.922M186.006 194.922V195.84M186.006 194.922V195.84M186.006 195.84V196.758M186.006 195.84V196.758M186.006 196.758V197.676M186.006 196.758V197.676M186.006 197.676V198.595M186.006 197.676V198.595M186.006 198.595V199.515M186.006 198.595V199.515M186.006 199.515V200.435M186.006 199.515V200.435M186.006 200.435V201.356M186.006 200.435V201.356M186.006 201.356V202.277M186.006 201.356V202.277M186.006 202.277V203.199M186.006 202.277V203.199M186.006 203.199V204.121M186.006 203.199V204.121M186.006 204.121V205.044M186.006 204.121V205.044M186.006 205.044V205.967M186.006 205.044V205.967M186.006 205.967V206.891M186.006 205.967V206.891M186.006 206.891V207.815M186.006 206.891V207.815M186.006 207.815V208.739M186.006 207.815V208.739M186.006 208.739V209.664M186.006 208.739V209.664M186.006 209.664V210.589M186.006 209.664V210.589M186.006 210.589V211.515M186.006 210.589V211.515M186.006 211.515V212.441M186.006 211.515V212.441M186.006 212.441V213.367M186.006 212.441V213.367M186.006 213.367V214.294M186.006 213.367V214.294M186.006 214.294V215.221M186.006 214.294V215.221M186.006 215.221V216.148M186.006 215.221V216.148M186.006 216.148V217.076M186.006 216.148V217.076M186.006 217.076V218.004M186.006 217.076V218.004M186.006 218.004V218.932M186.006 218.004V218.932M186.006 218.932V219.86M186.006 218.932V219.86M186.006 219.86V220.789M186.006 219.86V220.789M186.006 220.789V221.718M186.006 220.789V221.718M186.006 221.718V222.647M186.006 221.718V222.647M186.006 222.647V223.576M186.006 222.647V223.576M186.006 223.576V224.506M186.006 223.576V224.506M186.006 224.506V225.435M186.006 224.506V225.435M186.006 225.435V226.365M186.006 225.435V226.365M186.006 226.365V227.295M186.006 226.365V227.295M186.006 227.295V228.225M186.006 227.295V228.225M186.006 228.225V229.155M186.006 228.225V229.155M186.006 229.155V230.086M186.006 229.155V230.086M186.006 230.086V231.016M186.006 230.086V231.016M186.006 231.016V231.946M186.006 231.016V231.946M186.006 231.946V232.877M186.006 231.946V232.877M186.006 232.877V233.808M186.006 232.877V233.808M186.006 233.808V234.738M186.006 233.808V234.738M186.006 234.738V235.669M186.006 234.738V235.669M186.006 235.669V236.6M186.006 235.669V236.6M186.006 236.6V237.53M186.006 236.6V237.53M186.006 237.53V238.461M186.006 237.53V238.461M186.006 238.461V239.392M186.006 238.461V239.392M186.006 239.392V240.322M186.006 239.392V240.322M186.006 240.322V241.253M186.006 240.322V241.253M186.006 241.253V242.183M186.006 241.253V242.183M186.006 242.183V243.114M186.006 242.183V243.114M186.006 243.114V244.044M186.006 243.114V244.044M186.006 244.044V244.974M186.006 244.044V244.974M186.006 244.974V245.904M186.006 244.974V245.904M186.006 245.904V246.834M186.006 245.904V246.834M186.006 246.834V247.764M186.006 246.834V247.764M186.006 247.764V248.694M186.006 247.764V248.694M186.006 248.694V249.623M186.006 248.694V249.623M186.006 249.623V250.552M186.006 249.623V250.552M186.006 250.552V251.481M186.006 250.552V251.481M186.006 251.481V252.41M186.006 251.481V252.41M186.006 252.41V253.339M186.006 252.41V253.339M186.006 253.339V254.267M186.006 253.339V254.267M186.006 254.267V255.195M186.006 254.267V255.195M186.006 255.195V256.123M186.006 255.195V256.123M186.006 256.123V257.051M186.006 256.123V257.051M186.006 257.051V257.978M186.006 257.051V257.978M186.006 257.978V258.905M186.006 257.978V258.905M186.006 258.905V259.832M186.006 258.905V259.832M186.006 259.832V260.758M186.006 259.832V260.758M186.006 260.758V261.684M186.006 260.758V261.684M186.006 261.684V262.61M186.006 261.684V262.61M186.006 262.61V263.535M186.006 262.61V263.535M186.006 263.535V264.46M186.006 263.535V264.46M186.006 264.46V265.384M186.006 264.46V265.384M186.006 265.384V266.308M186.006 265.384V266.308M186.006 266.308V267.232M186.006 266.308V267.232M186.006 267.232V268.155M186.006 267.232V268.155M186.006 268.155V269.078M186.006 268.155V269.078M186.006 269.078V270M186.006 269.078V270M186.006 270V270.922M186.006 270V270.922M186.006 270.922V271.843M186.006 270.922V271.843M186.006 271.843V272.764M186.006 271.843V272.764M186.006 272.764V273.684M186.006 272.764V273.684M186.006 273.684V274.604M186.006 273.684V274.604M186.006 274.604V275.523M186.006 274.604V275.523M186.006 275.523V276.442M186.006 275.523V276.442M186.006 276.442V277.36M186.006 276.442V277.36M186.006 277.36V278.277M186.006 277.36V278.277M186.006 278.277V279.194M186.006 278.277V279.194M186.006 279.194V280.11M186.006 279.194V280.11M186.006 280.11V281.026M186.006 280.11V281.026M186.006 281.026V281.941M186.006 281.026V281.941M186.006 281.941V282.855M186.006 281.941V282.855M186.006 282.855V283.768M186.006 282.855V283.768M186.006 283.768V284.681M186.006 283.768V284.681M186.006 284.681V285.594M186.006 284.681V285.594M186.006 285.594V286.505M186.006 285.594V286.505M186.006 286.505V287.416M186.006 286.505V287.416M186.006 287.416V288.326M186.006 287.416V288.326M186.006 288.326V289.235M186.006 288.326V289.235M186.006 289.235V290.144M186.006 289.235V290.144M186.006 290.144V291.052M186.006 290.144V291.052M186.006 291.052V291.959M186.006 291.052V291.959M186.006 291.959V292.865M186.006 291.959V292.865M186.006 292.865V293.77M186.006 292.865V293.77M186.006 293.77V294.675M186.006 293.77V294.675M186.006 294.675V295.578M186.006 294.675V295.578M186.006 295.578V296.481M186.006 295.578V296.481M186.006 296.481V297.383M186.006 296.481V297.383M186.006 297.383V298.284M186.006 297.383V298.284M186.006 298.284V299.185M186.006 298.284V299.185M186.006 299.185V300.084M186.006 299.185V300.084M186.006 300.084V300.982M186.006 300.084V300.982M186.006 300.982V301.88M186.006 300.982V301.88M186.006 301.88V302.776M186.006 301.88V302.776M186.006 302.776V303.672M186.006 302.776V303.672M186.006 303.672V304.566M186.006 303.672V304.566M186.006 304.566V305.46M186.006 304.566V305.46M186.006 305.46V306.352M186.006 305.46V306.352M186.006 306.352V307.244M186.006 306.352V307.244M186.006 307.244V308.134M186.006 307.244V308.134M186.006 308.134V309.024M186.006 308.134V309.024M186.006 309.024V309.912M186.006 309.024V309.912M186.006 309.912V310.799M186.006 309.912V310.799M186.006 310.799V311.685M186.006 310.799V311.685M186.006 311.685V312.571M186.006 311.685V312.571M186.006 312.571V313.455M186.006 312.571V313.455M186.006 313.455V314.337M186.006 313.455V314.337M186.006 314.337V315.219M186.006 314.337V315.219M186.006 315.219V316.1M186.006 315.219V316.1M186.006 316.1V316.979M186.006 316.1V316.979M186.006 316.979V317.858M186.006 316.979V317.858M186.006 317.858V318.735M186.006 317.858V318.735M186.006 318.735V319.61M186.006 318.735V319.61M186.006 319.61V320.485M186.006 319.61V320.485M186.006 320.485V321.358M186.006 320.485V321.358M186.006 321.358V322.231M186.006 321.358V322.231M186.006 322.231V323.102M186.006 322.231V323.102M186.006 323.102V323.971M186.006 323.102V323.971M186.006 323.971V324.84M186.006 323.971V324.84M186.006 324.84V325.707M186.006 324.84V325.707M186.006 325.707V326.572M186.006 325.707V326.572M186.006 326.572V327.437M186.006 326.572V327.437M186.006 327.437V328.3M186.006 327.437V328.3M186.006 328.3V329.162M186.006 328.3V329.162M186.006 329.162V330.022M186.006 329.162V330.022M186.006 330.022V330.881M186.006 330.022V330.881M186.006 330.881V331.738M186.006 330.881V331.738M186.006 331.738V332.595M186.006 331.738V332.595M186.006 332.595V333.449M186.006 332.595V333.449M186.006 333.449V334.303M186.006 333.449V334.303M186.006 334.303V335.155M186.006 334.303V335.155M186.006 335.155V336.005M186.006 335.155V336.005M186.006 336.005V336.854M186.006 336.005V336.854M186.006 336.854V337.701M186.006 336.854V337.701M186.006 337.701V338.547M186.006 337.701V338.547M186.006 338.547V339.392M186.006 338.547V339.392M186.006 339.392V340.235M186.006 339.392V340.235M186.006 340.235V341.076M186.006 340.235V341.076M186.006 341.076V341.916M186.006 341.076V341.916M186.006 341.916V342.754M186.006 341.916V342.754M186.006 342.754V343.591M186.006 342.754V343.591M186.006 343.591V344.426M186.006 343.591V344.426M186.006 344.426V345.26M186.006 344.426V345.26M186.006 345.26V346.091M186.006 345.26V346.091M186.006 346.091V346.922M186.006 346.091V346.922M186.006 346.922V347.75M186.006 346.922V347.75M186.006 347.75V348.577M186.006 347.75V348.577M186.006 348.577V349.402M186.006 348.577V349.402M186.006 349.402V350.226M186.006 349.402V350.226M186.006 350.226V351.048M186.006 350.226V351.048M186.006 351.048V351.868M186.006 351.048V351.868M186.006 351.868V352.686M186.006 351.868V352.686M186.006 352.686V353.503M186.006 352.686V353.503M186.006 353.503V354.318M186.006 353.503V354.318M186.006 354.318V355.131M186.006 354.318V355.131M186.006 355.131V355.943M186.006 355.131V355.943M186.006 355.943V356.752M186.006 355.943V356.752M186.006 356.752V357.56M186.006 356.752V357.56M186.006 357.56V358.366M186.006 357.56V358.366M186.006 358.366V359.17M186.006 358.366V359.17M186.006 359.17V359.972M186.006 359.17V359.972M186.006 359.972V360.773M186.006 359.972V360.773M186.006 360.773V361.571M186.006 360.773V361.571M186.006 361.571V362.368M186.006 361.571V362.368M186.006 362.368V363.163M186.006 362.368V363.163M186.006 363.163V363.956M186.006 363.163V363.956M186.006 363.956V364.746M186.006 363.956V364.746M186.006 364.746V365.535M186.006 364.746V365.535M186.006 365.535V366.323M186.006 365.535V366.323M186.006 366.323V367.108M186.006 366.323V367.108M186.006 367.108V367.891M186.006 367.108V367.891M186.006 367.891V368.672M186.006 367.891V368.672M186.006 368.672V369.451M186.006 368.672V369.451M186.006 369.451V370.228M186.006 369.451V370.228M186.006 370.228V371.003M186.006 370.228V371.003M186.006 371.003V371.776M186.006 371.003V371.776M186.006 371.776V372.547M186.006 371.776V372.547M186.006 372.547V373.316M186.006 372.547V373.316M186.006 373.316V374.082M186.006 373.316V374.082M186.006 374.082V374.847M186.006 374.082V374.847M186.006 374.847V375.609M186.006 374.847V375.609M186.006 375.609V376.37M186.006 375.609V376.37M186.006 376.37V377.128M186.006 376.37V377.128M186.006 377.128V377.884M186.006 377.128V377.884M186.006 377.884V378.638M186.006 377.884V378.638M186.006 378.638V379.39M186.006 378.638V379.39M186.006 379.39V380.139M186.006 379.39V380.139M186.006 380.139V380.887M186.006 380.139V380.887M186.006 380.887V381.632M186.006 380.887V381.632M186.006 381.632V382.375M186.006 381.632V382.375M186.006 382.375V383.115M186.006 382.375V383.115M186.006 383.115V383.854M186.006 383.115V383.854M186.006 383.854V384.59M186.006 383.854V384.59M186.006 384.59V385.324M186.006 384.59V385.324M186.006 385.324V386.055M186.006 385.324V386.055M186.006 386.055V386.784M186.006 386.055V386.784M186.006 386.784V387.511M186.006 386.784V387.511M186.006 387.511V388.236M186.006 387.511V388.236M186.006 388.236V388.958M186.006 388.236V388.958M186.006 388.958V389.678M186.006 388.958V389.678M186.006 389.678V390.395M186.006 389.678V390.395M186.006 390.395V391.11M186.006 390.395V391.11M186.006 391.11V391.823M186.006 391.11V391.823M186.006 391.823V392.533M186.006 391.823V392.533M186.006 392.533V393.24M186.006 392.533V393.24M186.006 393.24V393.946M186.006 393.24V393.946M186.006 393.946V394.649M186.006 393.946V394.649M186.006 394.649V395.349M186.006 394.649V395.349M186.006 395.349V396.047M186.006 395.349V396.047M186.006 396.047V396.742M186.006 396.047V396.742M186.006 396.742V397.435M186.006 396.742V397.435M186.006 397.435V398.125M186.006 397.435V398.125M186.006 398.125V398.813M186.006 398.125V398.813M186.006 398.813V399.498M186.006 398.813V399.498M186.006 399.498V400.181M186.006 399.498V400.181M186.006 400.181V400.861M186.006 400.181V400.861M186.006 400.861V401.538M186.006 400.861V401.538M186.006 401.538V402.213M186.006 401.538V402.213M186.006 402.213V402.885M186.006 402.213V402.885M186.006 402.885V403.555M186.006 402.885V403.555M186.006 403.555V404.222M186.006 403.555V404.222M186.006 404.222V404.886M186.006 404.222V404.886M186.006 404.886V405.548M186.006 404.886V405.548M186.006 405.548V406.207M186.006 405.548V406.207M186.006 406.207V406.863M186.006 406.207V406.863M186.006 406.863V407.516M186.006 406.863V407.516M186.006 407.516V408.167M186.006 407.516V408.167M186.006 408.167V408.815M186.006 408.167V408.815M186.006 408.815V409.46M186.006 408.815V409.46M186.006 409.46V410.103M186.006 409.46V410.103M186.006 410.103V410.743M186.006 410.103V410.743M186.006 410.743V411.379M186.006 410.743V411.379M186.006 411.379V412.014M186.006 411.379V412.014M186.006 412.014V412.645M186.006 412.014V412.645M186.006 412.645V413.273M186.006 412.645V413.273M186.006 413.273V413.899M186.006 413.273V413.899M186.006 413.899V414.521M186.006 413.899V414.521M186.006 414.521V415.141M186.006 414.521V415.141M186.006 415.141V415.758M186.006 415.141V415.758M186.006 415.758V416.372M186.006 415.758V416.372M186.006 416.372V416.983M186.006 416.372V416.983M186.006 416.983V417.592M186.006 416.983V417.592M186.006 417.592V418.197M186.006 417.592V418.197M186.006 418.197V418.799M186.006 418.197V418.799M186.006 418.799V419.398M186.006 418.799V419.398M186.006 419.398V419.995M186.006 419.398V419.995M186.006 419.995V420.588M186.006 419.995V420.588M186.006 420.588V421.178M186.006 420.588V421.178M186.006 421.178V421.766M186.006 421.178V421.766M186.006 421.766V422.35M186.006 421.766V422.35M186.006 422.35V422.931M186.006 422.35V422.931M186.006 422.931V423.509M186.006 422.931V423.509M186.006 423.509V424.084M186.006 423.509V424.084M186.006 424.084V424.656M186.006 424.084V424.656M186.006 424.656V425.225M186.006 424.656V425.225M186.006 425.225V425.791V425.225Z" stroke="#E5E7EB"/>
<path d="M192.448 102.058L192.449 102.058C192.536 102.142 192.582 102.252 192.582 102.365V102.394V102.423V102.453V102.484V102.514V102.545V102.577V102.609V102.641V102.673V102.707V102.74V102.774V102.808V102.843V102.878V102.913V102.949V102.985V103.021V103.058V103.095V103.133V103.171V103.209V103.248V103.287V103.326V103.366V103.406V103.447V103.488V103.529V103.57V103.612V103.655V103.697V103.74V103.784V103.827V103.871V103.916V103.96V104.005V104.051V104.097V104.143V104.189V104.236V104.283V104.33V104.378V104.426V104.474V104.523V104.572V104.621V104.671V104.72V104.771V104.821V104.872V104.923V104.975V105.026V105.079V105.131V105.184V105.237V105.29V105.343V105.397V105.451V105.506V105.561V105.616V105.671V105.727V105.782V105.839V105.895V105.952V106.009V106.066V106.123V106.181V106.239V106.298V106.356V106.415V106.474V106.534V106.593V106.653V106.714V106.774V106.835V106.896V106.957V107.018V107.08V107.142V107.204V107.266V107.329V107.392V107.455V107.519V107.582V107.646V107.71V107.774V107.839V107.904V107.969V108.034V108.099V108.165V108.231V108.297V108.363V108.43V108.497V108.564V108.631V108.698V108.766V108.833V108.901V108.97V109.038V109.107V109.175V109.244V109.313V109.383V109.452V109.522V109.592V109.662V109.732V109.803V109.874V109.944V110.015V110.087V110.158V110.23V110.301V110.373V110.445V110.517V110.59V110.662V110.735V110.808V110.881V110.954V111.027V111.101V111.175V111.248V111.322V111.396V111.471V111.545V111.62V111.694V111.769V111.844V111.919V111.994V112.07V112.145V112.221V112.297V112.372V112.448V112.525V112.601V112.677V112.754V112.83V112.907V112.984V113.061V113.138V113.215V113.292V113.37V113.447V113.525V113.602V113.68V113.758V113.836V113.914V113.992V114.071V114.149V114.227V114.306V114.384V114.463V114.542V114.621V114.7V114.779V114.858V114.937V115.016V115.096V115.175V115.254V115.334V115.414V115.493V115.573V115.653V115.733V115.812V115.892V115.972V116.052V116.133V116.213V116.293V116.373V116.453V116.534V116.614V116.695V116.775V116.855V116.936V117.017V117.097V117.178V117.258V117.339V117.42V117.501V117.581V117.662V117.743V117.824V117.904V117.985V118.066V118.147V118.228V118.309V118.39V118.47V118.551V118.632V118.713V118.794V118.875V118.956V119.037V119.118V119.198V119.279V119.36V119.441V119.522V119.602V119.683V119.764V119.845V119.925V120.006V120.087V120.167V120.248V120.328V120.409V120.489V120.57V120.65V120.731V120.811V120.891V120.972V121.052V121.132V121.212V121.292V121.372V121.452V121.532V121.612V121.692V121.771V121.851V121.93V122.01V122.089V122.169V122.248V122.327V122.407V122.486V122.565V122.644V122.722V122.801V122.88V122.959V123.037V123.116V123.194V123.272V123.35V123.428V123.506V123.584V123.662V123.74V123.817V123.895V123.972V124.05V124.127V124.204V124.281V124.358V124.434V124.511V124.587V124.664V124.74V124.816V124.892V124.968V125.044V125.119V125.195V125.27V125.345V125.42V125.495V125.57V125.645V125.719V125.794V125.868V125.942V126.016V126.09V126.163V126.237V126.31V126.384V126.457V126.529V126.602V126.675V126.747V126.819V126.891V126.963V127.035V127.106V127.178V127.249V127.32V127.391V127.462V127.532V127.602V127.672V127.742V127.812V127.882V127.951V128.02V128.089V128.158V128.227V128.295V128.363V128.431V128.499V128.566V128.634V128.701V128.768V128.835V128.901V128.967V129.034V129.099V129.165V129.231V129.296V129.361V129.426V129.49V129.554V129.618V129.682V129.746V129.809V129.872V129.935V129.998V130.06V130.123V130.185V130.246V130.308V130.369V130.43V130.49V130.551V130.611V130.671V130.731V130.79V130.849V130.908V130.967V131.025V131.083V131.141V131.199V131.256V131.313V131.369V131.426V131.482V131.538V131.594V131.649V131.704V131.759V131.813V131.867V131.921V131.975V132.028V132.081V132.134V132.186V132.238V132.29V132.341V132.392V132.443V132.494V132.544V132.594V132.644V132.693V132.742V132.79V132.839V132.887V132.934V132.982V133.029V133.076V133.122V133.168V133.214V133.259V133.304V133.349V133.393V133.437V133.481V133.524V133.567V133.61V133.652V133.694V133.736V133.777V133.818V133.858V133.898V133.938V133.978V134.017V134.055V134.094V134.132V134.169V134.206V134.243V134.28V134.316V134.352V134.387V134.422V134.457V134.491V134.525V134.558V134.591V134.624V134.656V134.688V134.719V134.75V134.781V134.811V134.841V134.871V134.9C192.582 135.012 192.536 135.122 192.449 135.206L192.448 135.207C192.358 135.293 192.233 135.345 192.099 135.345H192.096H192.094H192.091H192.089H192.086H192.084H192.081H192.079H192.076H192.074H192.071H192.069H192.066H192.064H192.061H192.059H192.056H192.054H192.051H192.049H192.047H192.044H192.042H192.039H192.037H192.034H192.032H192.029H192.027H192.024H192.022H192.019H192.017H192.014H192.012H192.009H192.007H192.005H192.002H192H191.997H191.995H191.992H191.99H191.987H191.985H191.982H191.98H191.978H191.975H191.973H191.97H191.968H191.965H191.963H191.96H191.958H191.956H191.953H191.951H191.948H191.946H191.943H191.941H191.939H191.936H191.934H191.931H191.929H191.926H191.924H191.922H191.919H191.917H191.914H191.912H191.91H191.907H191.905H191.902H191.9H191.898H191.895H191.893H191.89H191.888H191.886H191.883H191.881H191.879H191.876H191.874H191.871H191.869H191.867H191.864H191.862H191.86H191.857H191.855H191.852H191.85H191.848H191.845H191.843H191.841H191.838H191.836H191.834H191.831H191.829H191.827H191.824H191.822H191.82H191.817H191.815H191.813H191.81H191.808H191.806H191.804H191.801H191.799H191.797H191.794H191.792H191.79H191.788H191.785H191.783H191.781H191.778H191.776H191.774H191.772H191.771V101.92H191.772H191.774H191.776H191.778H191.781H191.783H191.785H191.788H191.79H191.792H191.794H191.797H191.799H191.801H191.804H191.806H191.808H191.81H191.813H191.815H191.817H191.82H191.822H191.824H191.827H191.829H191.831H191.834H191.836H191.838H191.841H191.843H191.845H191.848H191.85H191.852H191.855H191.857H191.86H191.862H191.864H191.867H191.869H191.871H191.874H191.876H191.879H191.881H191.883H191.886H191.888H191.89H191.893H191.895H191.898H191.9H191.902H191.905H191.907H191.91H191.912H191.914H191.917H191.919H191.922H191.924H191.926H191.929H191.931H191.934H191.936H191.939H191.941H191.943H191.946H191.948H191.951H191.953H191.956H191.958H191.96H191.963H191.965H191.968H191.97H191.973H191.975H191.978H191.98H191.982H191.985H191.987H191.99H191.992H191.995H191.997H192H192.002H192.005H192.007H192.009H192.012H192.014H192.017H192.019H192.022H192.024H192.027H192.029H192.032H192.034H192.037H192.039H192.042H192.044H192.047H192.049H192.051H192.054H192.056H192.059H192.061H192.064H192.066H192.069H192.071H192.074H192.076H192.079H192.081H192.084H192.086H192.089H192.091H192.094H192.096H192.099C192.233 101.92 192.358 101.971 192.448 102.058Z" stroke="#E5E7EB"/>
<path d="M74.3895 17.0116C74.3895 18.086 73.4769 18.9909 72.3083 18.9909C71.1398 18.9909 70.2272 18.086 70.2272 17.0116C70.2272 15.9372 71.1398 15.0322 72.3083 15.0322C73.4769 15.0322 74.3895 15.9372 74.3895 17.0116Z" stroke="#E5E7EB"/>
<path d="M38.0584 31.4545C38.0584 33.3163 36.4813 34.8596 34.493 34.8596C32.5047 34.8596 30.9276 33.3163 30.9276 31.4545C30.9276 29.5926 32.5047 28.0493 34.493 28.0493C36.4813 28.0493 38.0584 29.5926 38.0584 31.4545Z" stroke="#E5E7EB"/>
<path d="M91.153 30.5288C91.7851 30.5288 92.2647 31.0176 92.2647 31.5784C92.2647 32.1392 91.7851 32.628 91.153 32.628H53.4021C52.7688 32.628 52.2875 32.138 52.2875 31.5784C52.2875 31.0188 52.7688 30.5288 53.4021 30.5288H91.153Z" stroke="#E5E7EB"/>
<path d="M175.657 57.9102C176.562 57.9102 177.265 58.6122 177.265 59.4362V413.436C177.265 414.263 176.562 414.964 175.657 414.964H-31.0382C-31.9452 414.964 -32.6472 414.263 -32.6472 413.436V59.4362C-32.6472 58.6124 -31.9453 57.9102 -31.0382 57.9102H175.657Z" stroke="#E5E7EB"/>
</g>
<defs>
<clipPath id="clip0_9_296">
<rect width="193.2" height="341" fill="white" transform="translate(0.5)"/>
</clipPath>
</defs>
</svg>
