<svg width="142" height="26" viewBox="0 0 142 26" fill="none" xmlns="http://www.w3.org/2000/svg">
<line x1="2" y1="5" x2="2" y2="21" stroke="white" stroke-width="4" stroke-linecap="round"/>
<line x1="12" y1="7" x2="12" y2="19" stroke="white" stroke-width="4" stroke-linecap="round"/>
<line x1="22" y1="9" x2="22" y2="17" stroke="white" stroke-width="4" stroke-linecap="round"/>
<path d="M33.5986 5.35938V21H32.2773V5.35938H33.5986ZM38.8301 11.8584V21H37.5518V9.37695H38.7764L38.8301 11.8584ZM38.54 14.4688L37.9707 14.1465C38.0137 13.459 38.1533 12.8145 38.3896 12.2129C38.626 11.6113 38.9447 11.0814 39.3457 10.623C39.7539 10.1647 40.2301 9.80664 40.7744 9.54883C41.3258 9.29102 41.9346 9.16211 42.6006 9.16211C43.1807 9.16211 43.6999 9.24089 44.1582 9.39844C44.6165 9.55599 45.0068 9.80664 45.3291 10.1504C45.6514 10.4941 45.8949 10.9346 46.0596 11.4717C46.2314 12.0088 46.3174 12.6641 46.3174 13.4375V21H45.0283V13.4268C45.0283 12.6247 44.9173 11.998 44.6953 11.5469C44.4733 11.0885 44.1582 10.7627 43.75 10.5693C43.3418 10.376 42.8584 10.2793 42.2998 10.2793C41.6839 10.2793 41.1432 10.4154 40.6777 10.6875C40.2194 10.9525 39.8327 11.2998 39.5176 11.7295C39.2096 12.152 38.9733 12.6068 38.8086 13.0938C38.6439 13.5736 38.5544 14.0319 38.54 14.4688ZM57.1992 18.7441V4.5H58.4883V21H57.2852L57.1992 18.7441ZM49.1318 15.3066V15.0811C49.1318 14.1787 49.2357 13.3659 49.4434 12.6426C49.651 11.9121 49.9482 11.2891 50.335 10.7734C50.7288 10.2507 51.2015 9.85319 51.7529 9.58105C52.3044 9.30176 52.9274 9.16211 53.6221 9.16211C54.3024 9.16211 54.904 9.27311 55.4268 9.49512C55.9495 9.71712 56.3971 10.0358 56.7695 10.4512C57.1491 10.8665 57.4535 11.3607 57.6826 11.9336C57.9189 12.5065 58.0908 13.1439 58.1982 13.8457V16.7139C58.1123 17.3727 57.9548 17.9779 57.7256 18.5293C57.4964 19.0736 57.1921 19.5498 56.8125 19.958C56.4329 20.359 55.9746 20.6706 55.4375 20.8926C54.9076 21.1074 54.2952 21.2148 53.6006 21.2148C52.9131 21.2148 52.2936 21.0716 51.7422 20.7852C51.1908 20.4987 50.7217 20.0941 50.335 19.5713C49.9482 19.0413 49.651 18.4147 49.4434 17.6914C49.2357 16.9681 49.1318 16.1732 49.1318 15.3066ZM50.4209 15.0811V15.3066C50.4209 15.987 50.4889 16.6172 50.625 17.1973C50.7611 17.7773 50.9688 18.2822 51.248 18.7119C51.5273 19.1416 51.8818 19.4782 52.3115 19.7217C52.7412 19.9652 53.2497 20.0869 53.8369 20.0869C54.5745 20.0869 55.194 19.9473 55.6953 19.668C56.1966 19.3815 56.5977 19.0055 56.8984 18.54C57.1992 18.0674 57.4176 17.5518 57.5537 16.9932V13.6523C57.4678 13.2728 57.3424 12.8861 57.1777 12.4922C57.013 12.0983 56.7874 11.7367 56.501 11.4072C56.2217 11.0706 55.8636 10.8021 55.4268 10.6016C54.9971 10.3939 54.4743 10.29 53.8584 10.29C53.264 10.29 52.752 10.4118 52.3223 10.6553C51.8926 10.8988 51.5345 11.2389 51.248 11.6758C50.9688 12.1055 50.7611 12.6104 50.625 13.1904C50.4889 13.7705 50.4209 14.4007 50.4209 15.0811ZM63.3008 9.37695V21H62.0225V9.37695H63.3008ZM61.7969 6.01465C61.7969 5.77116 61.8721 5.56706 62.0225 5.40234C62.18 5.23047 62.3949 5.14453 62.667 5.14453C62.9391 5.14453 63.154 5.23047 63.3115 5.40234C63.4762 5.56706 63.5586 5.77116 63.5586 6.01465C63.5586 6.25098 63.4762 6.45508 63.3115 6.62695C63.154 6.79167 62.9391 6.87402 62.667 6.87402C62.3949 6.87402 62.18 6.79167 62.0225 6.62695C61.8721 6.45508 61.7969 6.25098 61.7969 6.01465ZM73.8818 18.916V12.9219C73.8818 12.3704 73.7673 11.8942 73.5381 11.4932C73.3089 11.0921 72.9723 10.7842 72.5283 10.5693C72.0843 10.3545 71.5365 10.2471 70.8848 10.2471C70.2832 10.2471 69.7461 10.3545 69.2734 10.5693C68.8079 10.777 68.4391 11.0599 68.167 11.418C67.902 11.7689 67.7695 12.1592 67.7695 12.5889L66.4805 12.5781C66.4805 12.1413 66.5879 11.7188 66.8027 11.3105C67.0176 10.9023 67.3219 10.5371 67.7158 10.2148C68.1097 9.89258 68.5788 9.63835 69.123 9.45215C69.6745 9.25879 70.2796 9.16211 70.9385 9.16211C71.7692 9.16211 72.4997 9.30176 73.1299 9.58105C73.7673 9.86035 74.265 10.2793 74.623 10.8379C74.9811 11.3965 75.1602 12.0983 75.1602 12.9434V18.5615C75.1602 18.9626 75.1888 19.3779 75.2461 19.8076C75.3105 20.2373 75.4001 20.5918 75.5146 20.8711V21H74.1504C74.0645 20.7422 73.9964 20.4199 73.9463 20.0332C73.9033 19.6393 73.8818 19.2669 73.8818 18.916ZM74.1826 14.2324L74.2041 15.2207H71.6797C71.0208 15.2207 70.43 15.2816 69.9072 15.4033C69.3916 15.5179 68.9548 15.6898 68.5967 15.9189C68.2386 16.141 67.9629 16.4095 67.7695 16.7246C67.5833 17.0397 67.4902 17.3978 67.4902 17.7988C67.4902 18.2142 67.5941 18.5938 67.8018 18.9375C68.0166 19.2812 68.3174 19.557 68.7041 19.7646C69.098 19.9652 69.5635 20.0654 70.1006 20.0654C70.8167 20.0654 71.4469 19.9329 71.9912 19.668C72.5426 19.403 72.9974 19.0557 73.3555 18.626C73.7135 18.1963 73.9535 17.7272 74.0752 17.2188L74.6338 17.96C74.5407 18.318 74.3688 18.6868 74.1182 19.0664C73.8747 19.4388 73.556 19.7897 73.1621 20.1191C72.7682 20.4414 72.3027 20.7064 71.7656 20.9141C71.2357 21.1146 70.6341 21.2148 69.9609 21.2148C69.2018 21.2148 68.5394 21.0716 67.9736 20.7852C67.415 20.4987 66.9782 20.1084 66.6631 19.6143C66.3551 19.113 66.2012 18.5472 66.2012 17.917C66.2012 17.3441 66.3229 16.832 66.5664 16.3809C66.8099 15.9225 67.1608 15.5358 67.6191 15.2207C68.0846 14.8984 68.6432 14.6549 69.2949 14.4902C69.9538 14.3184 70.6914 14.2324 71.5078 14.2324H74.1826ZM79.8867 11.8584V21H78.6084V9.37695H79.833L79.8867 11.8584ZM79.5967 14.4688L79.0273 14.1465C79.0703 13.459 79.21 12.8145 79.4463 12.2129C79.6826 11.6113 80.0013 11.0814 80.4023 10.623C80.8105 10.1647 81.2868 9.80664 81.8311 9.54883C82.3825 9.29102 82.9912 9.16211 83.6572 9.16211C84.2373 9.16211 84.7565 9.24089 85.2148 9.39844C85.6732 9.55599 86.0635 9.80664 86.3857 10.1504C86.708 10.4941 86.9515 10.9346 87.1162 11.4717C87.2881 12.0088 87.374 12.6641 87.374 13.4375V21H86.085V13.4268C86.085 12.6247 85.974 11.998 85.752 11.5469C85.5299 11.0885 85.2148 10.7627 84.8066 10.5693C84.3984 10.376 83.915 10.2793 83.3564 10.2793C82.7406 10.2793 82.1999 10.4154 81.7344 10.6875C81.276 10.9525 80.8893 11.2998 80.5742 11.7295C80.2663 12.152 80.0299 12.6068 79.8652 13.0938C79.7005 13.5736 79.611 14.0319 79.5967 14.4688ZM97.7725 18.916V12.9219C97.7725 12.3704 97.6579 11.8942 97.4287 11.4932C97.1995 11.0921 96.863 10.7842 96.4189 10.5693C95.9749 10.3545 95.4271 10.2471 94.7754 10.2471C94.1738 10.2471 93.6367 10.3545 93.1641 10.5693C92.6986 10.777 92.3298 11.0599 92.0576 11.418C91.7926 11.7689 91.6602 12.1592 91.6602 12.5889L90.3711 12.5781C90.3711 12.1413 90.4785 11.7188 90.6934 11.3105C90.9082 10.9023 91.2126 10.5371 91.6064 10.2148C92.0003 9.89258 92.4694 9.63835 93.0137 9.45215C93.5651 9.25879 94.1702 9.16211 94.8291 9.16211C95.6598 9.16211 96.3903 9.30176 97.0205 9.58105C97.6579 9.86035 98.1556 10.2793 98.5137 10.8379C98.8717 11.3965 99.0508 12.0983 99.0508 12.9434V18.5615C99.0508 18.9626 99.0794 19.3779 99.1367 19.8076C99.2012 20.2373 99.2907 20.5918 99.4053 20.8711V21H98.041C97.9551 20.7422 97.887 20.4199 97.8369 20.0332C97.7939 19.6393 97.7725 19.2669 97.7725 18.916ZM98.0732 14.2324L98.0947 15.2207H95.5703C94.9115 15.2207 94.3206 15.2816 93.7979 15.4033C93.2822 15.5179 92.8454 15.6898 92.4873 15.9189C92.1292 16.141 91.8535 16.4095 91.6602 16.7246C91.474 17.0397 91.3809 17.3978 91.3809 17.7988C91.3809 18.2142 91.4847 18.5938 91.6924 18.9375C91.9072 19.2812 92.208 19.557 92.5947 19.7646C92.9886 19.9652 93.4541 20.0654 93.9912 20.0654C94.7074 20.0654 95.3376 19.9329 95.8818 19.668C96.4333 19.403 96.888 19.0557 97.2461 18.626C97.6042 18.1963 97.8441 17.7272 97.9658 17.2188L98.5244 17.96C98.4313 18.318 98.2594 18.6868 98.0088 19.0664C97.7653 19.4388 97.4466 19.7897 97.0527 20.1191C96.6589 20.4414 96.1934 20.7064 95.6562 20.9141C95.1263 21.1146 94.5247 21.2148 93.8516 21.2148C93.0924 21.2148 92.43 21.0716 91.8643 20.7852C91.3057 20.4987 90.8688 20.1084 90.5537 19.6143C90.2458 19.113 90.0918 18.5472 90.0918 17.917C90.0918 17.3441 90.2135 16.832 90.457 16.3809C90.7005 15.9225 91.0514 15.5358 91.5098 15.2207C91.9753 14.8984 92.5339 14.6549 93.1855 14.4902C93.8444 14.3184 94.582 14.2324 95.3984 14.2324H98.0732ZM102.381 20.2158C102.381 19.9652 102.46 19.7539 102.617 19.582C102.782 19.403 103.004 19.3135 103.283 19.3135C103.57 19.3135 103.795 19.3994 103.96 19.5713C104.125 19.7432 104.207 19.958 104.207 20.2158C104.207 20.4593 104.125 20.667 103.96 20.8389C103.795 21.0107 103.57 21.0967 103.283 21.0967C103.004 21.0967 102.782 21.0107 102.617 20.8389C102.46 20.667 102.381 20.4593 102.381 20.2158ZM112.253 21.2148C111.494 21.2148 110.796 21.0752 110.158 20.7959C109.528 20.5166 108.977 20.1227 108.504 19.6143C108.038 19.1058 107.677 18.5042 107.419 17.8096C107.168 17.1077 107.043 16.3415 107.043 15.5107V15.0488C107.043 14.1536 107.175 13.3444 107.44 12.6211C107.705 11.8978 108.071 11.2783 108.536 10.7627C109.002 10.2471 109.532 9.85319 110.126 9.58105C110.728 9.30176 111.358 9.16211 112.017 9.16211C112.754 9.16211 113.41 9.2946 113.982 9.55957C114.555 9.81738 115.035 10.1862 115.422 10.666C115.816 11.1387 116.113 11.7008 116.313 12.3525C116.514 12.9971 116.614 13.7096 116.614 14.4902V15.2744H107.816V14.1787H115.336V14.0283C115.322 13.3766 115.189 12.7679 114.938 12.2021C114.695 11.6292 114.33 11.1637 113.843 10.8057C113.356 10.4476 112.747 10.2686 112.017 10.2686C111.472 10.2686 110.971 10.3831 110.513 10.6123C110.062 10.8415 109.671 11.1709 109.342 11.6006C109.02 12.0231 108.769 12.528 108.59 13.1152C108.418 13.6953 108.332 14.3398 108.332 15.0488V15.5107C108.332 16.1553 108.425 16.7568 108.611 17.3154C108.805 17.8669 109.077 18.3538 109.428 18.7764C109.786 19.1989 110.208 19.5283 110.695 19.7646C111.182 20.001 111.719 20.1191 112.307 20.1191C112.994 20.1191 113.603 19.9938 114.133 19.7432C114.663 19.4854 115.139 19.0807 115.562 18.5293L116.367 19.1523C116.117 19.5247 115.801 19.8685 115.422 20.1836C115.049 20.4987 114.602 20.7493 114.079 20.9355C113.556 21.1217 112.948 21.2148 112.253 21.2148ZM126.701 18.7441V4.5H127.99V21H126.787L126.701 18.7441ZM118.634 15.3066V15.0811C118.634 14.1787 118.738 13.3659 118.945 12.6426C119.153 11.9121 119.45 11.2891 119.837 10.7734C120.231 10.2507 120.703 9.85319 121.255 9.58105C121.806 9.30176 122.429 9.16211 123.124 9.16211C123.804 9.16211 124.406 9.27311 124.929 9.49512C125.451 9.71712 125.899 10.0358 126.271 10.4512C126.651 10.8665 126.955 11.3607 127.185 11.9336C127.421 12.5065 127.593 13.1439 127.7 13.8457V16.7139C127.614 17.3727 127.457 17.9779 127.228 18.5293C126.998 19.0736 126.694 19.5498 126.314 19.958C125.935 20.359 125.477 20.6706 124.939 20.8926C124.41 21.1074 123.797 21.2148 123.103 21.2148C122.415 21.2148 121.796 21.0716 121.244 20.7852C120.693 20.4987 120.224 20.0941 119.837 19.5713C119.45 19.0413 119.153 18.4147 118.945 17.6914C118.738 16.9681 118.634 16.1732 118.634 15.3066ZM119.923 15.0811V15.3066C119.923 15.987 119.991 16.6172 120.127 17.1973C120.263 17.7773 120.471 18.2822 120.75 18.7119C121.029 19.1416 121.384 19.4782 121.813 19.7217C122.243 19.9652 122.752 20.0869 123.339 20.0869C124.076 20.0869 124.696 19.9473 125.197 19.668C125.699 19.3815 126.1 19.0055 126.4 18.54C126.701 18.0674 126.92 17.5518 127.056 16.9932V13.6523C126.97 13.2728 126.844 12.8861 126.68 12.4922C126.515 12.0983 126.289 11.7367 126.003 11.4072C125.724 11.0706 125.366 10.8021 124.929 10.6016C124.499 10.3939 123.976 10.29 123.36 10.29C122.766 10.29 122.254 10.4118 121.824 10.6553C121.395 10.8988 121.036 11.2389 120.75 11.6758C120.471 12.1055 120.263 12.6104 120.127 13.1904C119.991 13.7705 119.923 14.4007 119.923 15.0811ZM138.818 18.3145V9.37695H140.107V21H138.872L138.818 18.3145ZM139.055 16.166L139.721 16.1445C139.721 16.875 139.635 17.5482 139.463 18.1641C139.291 18.7799 139.022 19.3171 138.657 19.7754C138.292 20.2337 137.819 20.5882 137.239 20.8389C136.659 21.0895 135.961 21.2148 135.145 21.2148C134.579 21.2148 134.06 21.1361 133.587 20.9785C133.121 20.8138 132.72 20.556 132.384 20.2051C132.047 19.8542 131.786 19.3994 131.6 18.8408C131.421 18.2822 131.331 17.6055 131.331 16.8105V9.37695H132.609V16.832C132.609 17.4551 132.677 17.9743 132.813 18.3896C132.957 18.805 133.15 19.138 133.394 19.3887C133.644 19.6393 133.931 19.8184 134.253 19.9258C134.575 20.0332 134.923 20.0869 135.295 20.0869C136.24 20.0869 136.985 19.9043 137.529 19.5391C138.081 19.1738 138.471 18.694 138.7 18.0996C138.937 17.498 139.055 16.8535 139.055 16.166Z" fill="white"/>
</svg>
